<?xml version="1.0" standalone="no"?><!-- Generator: Gravit.io --><svg xmlns="http://www.w3.org/2000/svg" xmlns:xlink="http://www.w3.org/1999/xlink" style="isolation:isolate" viewBox="286.8788552649912 543.01765913216 71.31059115455417 55.093137027925536" width="71.31059115455417" height="55.093137027925536"><path d=" M 346.11230413761285 580.7692059346775 L 346.11230413761285 580.7692059346775 C 343.7675022608896 586.0195381031256 343.48645160727045 586.3941415563095 340.48658400613124 588.4574024607575 C 340.86148165050884 585.5517741053015 341.8009321954048 582.9256273837657 340.95827055320325 580.2073007549016 C 340.5832748450944 578.8020474868056 340.29938034327046 577.3948329440857 339.83112602679046 576.0837208579417 C 338.52001394064644 572.8966495939417 337.7711992892032 572.8966495939417 335.61360107534085 575.7081367674457 C 331.583770105408 581.1477319371097 331.8648207590272 589.3948917310297 336.26905905468163 595.2963670746456 C 336.83125842565124 595.9553553483095 337.5800730770944 596.5182411653975 337.6773522984448 597.8293532515415 C 333.08198779068164 597.7361927069016 328.9583098299904 596.5182411653975 325.86469330182405 593.0497269928535 C 321.7410153411328 588.0827990075736 322.30311664837126 582.2705616593496 323.33258969850885 576.0837208579417 C 324.9280866051328 577.0202294909016 325.11578058664963 578.5215852155736 326.05189696468483 579.4580938485335 C 327.27288848185606 580.9565076612696 328.11564818778885 580.8623664793176 328.9583098299904 579.1766509399897 C 329.89491652668164 577.1133900355417 329.80440370278404 575.0530710430296 328.9583098299904 573.1771118651736 C 327.55344881681924 569.8958994192217 328.11564818778885 566.8019886998616 329.23945854734086 563.7090586178135 C 330.928214062336 559.3030551749976 333.5503401708928 555.4609181865817 336.83125842565124 552.0865451959896 C 337.30235659033605 551.6178005608535 337.7711992892032 550.7754331098456 338.52001394064644 551.0558953810776 C 339.26892665582085 551.2441777449817 338.9883663208576 552.1806863779416 338.9883663208576 552.7416109204057 C 339.08221331161604 555.3677576419416 340.673787668992 557.4310185463896 341.9882339219968 559.5854787208536 C 344.51690529472 563.7090586178135 346.6740131899264 568.0228821533017 344.7074431244416 573.2712530471256 C 346.95506384354564 571.6786980524375 347.52010706272006 570.6451063255897 349.01832474799363 565.6781783403096 C 352.767497319232 570.1773423277657 354.546863721856 574.7726087717976 352.5802936563712 580.5819042080857 C 354.831248542336 579.4580938485335 355.48631426675206 577.4879934887256 356.32907397268485 575.7081367674457 C 361.95469604043524 585.0810681955415 354.17196607747843 597.3606086164054 341.70708520464643 598.1107961600856 C 347.048910834304 593.2370287194456 347.9850272123392 587.6120930978136 346.11230413761285 580.7692059346775 L 346.11230413761285 580.7692059346775 Z " fill-rule="evenodd" fill="rgb(255,153,0)" stroke-width="1" stroke="rgba(0,0,0,0)" stroke-linejoin="miter" stroke-linecap="square"/><path d=" M 331.3073151312696 552.7066749549988 L 331.3073151312696 545.1145808854949 C 331.3073151312696 544.1790528898468 330.5579120974392 543.5230065281189 329.7151523915064 543.5230065281189 L 323.52772320771123 543.5230065281189 C 322.6850615655096 543.5230065281189 321.9361488503352 544.1790528898468 321.9361488503352 545.1145808854949 L 321.9361488503352 550.2688105973668 C 319.49749998285364 548.0211898782629 317.15358067971124 545.8637877918629 314.7154221308856 543.6161670727588 C 313.7788154341944 542.8679408037028 313.3105611177144 542.7698770725028 312.37444473967923 543.6161670727588 C 304.4977697222328 550.646355962487 296.53146445446964 557.6765448522149 288.5647669317816 564.6125925599908 C 288.0026656245432 565.1744977397668 287.4409565722296 565.6432423749029 286.8788552649912 566.2051475546789 L 290.90917655358004 566.2051475546789 L 290.90917655358004 567.985004275959 C 290.90917655358004 568.1752479144868 290.9995913137464 568.5498513676707 290.9995913137464 568.8303136389029 C 290.9995913137464 576.0478042552229 290.9995913137464 583.2652948715429 290.90917655358004 590.5759460325028 C 290.90917655358004 591.5134353027747 291.1902272071992 591.7968394859429 292.2206808946488 591.7968394859429 C 296.4376174637112 591.7968394859429 300.6551424151608 591.7968394859429 304.8726673666104 591.7968394859429 C 305.81211791150645 591.7968394859429 305.99932157436723 591.5134353027747 305.99932157436723 590.5759460325028 C 305.99932157436723 586.9211107706788 305.99932157436723 583.2652948715429 305.99932157436723 579.6094789724068 C 306.0931685651256 577.546218067959 307.2169789246776 576.4224077084068 309.28073014778164 576.4224077084068 C 311.153453222508 576.3292471637669 313.0295104640952 576.4224077084068 314.9994146964408 576.4224077084068 C 318.3708457750968 576.4224077084068 319.4046336294072 577.4530575233189 319.4046336294072 580.7342699692708 C 319.49749998285364 578.7671115213989 319.87239762723124 576.7038506169508 320.24729527160883 574.5464485305508 L 320.8090043239224 571.266216721911 L 323.6215701984696 573.0470540805029 C 325.1198859474744 573.9845433507749 325.6814969360568 575.0181350776229 326.34087746464564 576.0478042552229 L 326.34087746464564 576.140964799863 C 326.433743818092 575.7663613466789 326.5275908088504 575.3927385308068 326.5275908088504 575.0181350776229 C 326.5275908088504 574.359146803959 326.34087746464564 573.6089592602789 325.965979820268 572.8607329912229 C 325.1198859474744 570.890632631415 324.83883529385525 569.0185960028068 324.93268228461363 567.0475150056868 C 325.026529275372 565.2686389217188 325.49429327319604 563.4858402885029 326.2470304738872 561.800124749175 C 327.08979017982006 559.4564015734948 328.213600539372 557.2058389424549 329.62130540074804 555.144539312631 C 330.1835047717176 554.3021718616228 330.7451157603 553.549042406007 331.3073151312696 552.7066749549988 L 331.3073151312696 552.7066749549988 Z " fill-rule="evenodd" fill="rgb(39,68,116)" stroke-width="1" stroke="rgba(0,0,0,0)" stroke-linejoin="miter" stroke-linecap="square"/></svg>