<?xml version="1.0" standalone="no"?><!-- Generator: Gravit.io --><svg xmlns="http://www.w3.org/2000/svg" xmlns:xlink="http://www.w3.org/1999/xlink" style="isolation:isolate" viewBox="375.12482468211954 168.77655080312923 64.94127716927926 70.61512987333515" width="64.94127716927926" height="70.61512987333515"><path d=" M 381.03120321229557 212.11329256856033 L 381.03120321229557 212.11329256856033 L 381.03120321229557 212.02013202392038 L 381.03120321229557 209.86665248676837 L 375.12482468211954 209.86665248676837 C 378.21873540147953 206.96004349400033 381.40678730279154 204.1465950458724 384.4997173848395 201.33412723505637 L 384.4997173848395 185.58901455358432 C 384.4997173848395 184.55640346404834 385.3420848358476 183.71207473841633 386.37567656269556 183.71207473841633 L 393.5000066343755 183.71207473841633 C 394.52967581197555 183.71207473841633 395.3720432629836 184.55640346404834 395.3720432629836 185.58901455358432 L 395.3720432629836 191.49343180913638 C 398.09036989184756 188.96338754417638 400.90381833997554 186.43138200459236 403.7162861507915 183.8993764650084 C 404.7459553283915 182.96286783204835 405.30884114547956 182.96286783204835 406.33851032307956 183.8993764650084 C 407.2759995933515 184.74468582795237 409.80800513293553 185.68217509822438 409.4324210424396 187.08742836632035 L 408.68321413607157 190.0871979037284 C 408.2154501382475 192.80650516990437 407.8408466850635 195.52287052414442 408.0271677743436 198.14705597105637 C 408.30861068288755 200.86636323723235 409.24511931584755 203.49152932145637 411.2152196756556 205.83427185982436 C 412.7126528510795 207.61510921841636 414.4964321216076 208.8350220345444 416.4626099321676 209.58520957822435 C 420.7734915557195 211.17678393560038 426.5867095412556 210.70901993777636 431.0848928913995 210.70901993777636 L 431.0848928913995 211.92599084196837 C 431.0848928913995 212.20743375051234 431.0848928913995 212.48985729636837 431.0848928913995 212.8644607495524 C 431.0848928913995 221.30088354468836 431.0848928913995 229.54902397592036 431.0848928913995 237.8932668637284 C 431.0848928913995 239.11023776792035 430.71028943821557 239.39168067646438 429.5864790786635 239.39168067646438 C 424.7136922753356 239.29753949451236 419.93112410471144 239.29753949451236 415.05735666407156 239.39168067646438 C 413.9345269418316 239.39168067646438 413.6501421213515 239.0160965859684 413.6501421213515 237.8932668637284 C 413.74330266599156 233.76772569214438 413.74330266599156 229.54902397592036 413.6501421213515 225.3313028970084 C 413.6501421213515 222.98856035864037 412.33903003520754 221.67548699787238 409.9943262222156 221.67548699787238 C 407.74670550311157 221.58232645323233 405.5893034167116 221.58232645323233 403.3397214229836 221.58232645323233 C 399.49562315994353 221.58232645323233 398.2786522557516 222.80125863204836 398.2786522557516 226.83167798436835 C 398.2786522557516 230.5816350654564 398.2786522557516 234.33061150923237 398.2786522557516 238.0795879530084 C 398.2786522557516 239.0160965859684 398.09036989184756 239.29753949451236 397.0577588023116 239.29753949451236 C 392.27911318093555 239.29753949451236 387.49948692224757 239.20339831256035 382.72084130087154 239.29753949451236 C 381.49896721011953 239.39168067646438 381.1253443942476 239.0160965859684 381.03120321229557 238.1737291349604 L 381.03120321229557 232.73609523992036 C 381.03120321229557 225.79906689483238 381.03120321229557 218.95617973169635 381.03120321229557 212.11329256856033 L 381.03120321229557 212.11329256856033 Z " fill-rule="evenodd" fill="rgb(39,68,116)" stroke-width="1" stroke="rgba(0,0,0,0)" stroke-linejoin="miter" stroke-linecap="square"/><path d=" M 429.7728001679435 194.11761725604833 C 427.8036804454475 198.61678124350436 427.6163787188556 198.99138469668839 424.99121263463155 200.6790615106404 C 425.27559745511155 198.24021651569637 426.1179649061196 195.99357643390437 425.36875799975155 193.6488726209124 C 425.0882957285195 192.5250622613604 424.8039109080396 191.30613008254437 424.4293074548556 190.1813390856804 C 423.3054970953035 187.46203181950438 422.6494507335756 187.36789063755236 420.86763273767156 189.80575499518437 C 417.4020604770635 194.49222070923236 417.68056147367156 201.5224095989604 421.33539673549546 206.58544004081637 C 421.80708328256753 207.14636458328033 422.4631296442956 207.61510921841636 422.55629018893546 208.73891957796837 C 418.6190313812556 208.64575903332832 415.1524784833356 207.61510921841636 412.52633176179955 204.61533968100838 C 408.9646570446155 200.30445805745637 409.4324210424396 195.42970997950437 410.3699103127115 190.1813390856804 C 411.6839643107915 190.92956535473638 411.9644265820236 192.24361935281632 412.6194923064396 193.08696744113638 C 413.74330266599156 194.30393834532833 414.4964321216076 194.30393834532833 415.1524784833356 192.71236398795236 C 415.9948459343436 191.0237065366884 415.8997241150795 189.24483045272035 415.1524784833356 187.64933354609633 C 413.9345269418316 184.93198755454438 414.39836839040754 182.21464156299237 415.4329407545675 179.68263602340835 C 416.8381940226635 175.83951839768042 419.08777601639156 172.65244713368043 421.9012244645195 169.74583814091238 C 422.27484728039155 169.27807414308836 422.6494507335756 168.62202778136037 423.3054970953035 168.80932950795238 C 423.9605628197195 168.9966312345444 423.68010054848764 169.74583814091238 423.68010054848764 170.30970459531238 C 423.8674022750795 172.55830595172836 425.0882957285195 174.24598276568042 426.2111254507595 176.12096130622433 C 428.4587461698635 179.68263602340835 430.2415448030795 183.33747128523237 428.55582926375155 187.7424940907364 C 430.5229877116235 186.33822145995236 430.9907517094475 185.49487337163242 432.3048057075275 181.27617165540835 C 435.4928576088395 185.1202699184484 436.9902907842636 189.0575287261284 435.3055558822475 194.02347607409632 C 437.17857314816763 192.99380689649638 437.7404783279436 191.39929062718437 438.48968523431154 189.80575499518437 C 443.27225340493555 197.77245251787235 436.61568733107947 208.2711555801444 426.0248043614796 208.92818257918435 C 430.6161482562636 204.8026414076004 431.36535516263154 200.02399578622436 429.7728001679435 194.11761725604833 L 429.7728001679435 194.11761725604833 Z " fill-rule="evenodd" fill="rgb(255,153,0)" stroke-width="1" stroke="rgba(0,0,0,0)" stroke-linejoin="miter" stroke-linecap="square"/></svg>