<?xml version="1.0" standalone="no"?><!-- Generator: Gravit.io --><svg xmlns="http://www.w3.org/2000/svg" xmlns:xlink="http://www.w3.org/1999/xlink" style="isolation:isolate" viewBox="30.247795269292908 342.89409968576 53.80658867212804 72.08272625587199" width="53.80658867212804" height="72.08272625587199"><path d=" M 84.05438394142095 370.0773659744 L 84.05438394142095 370.0773659744 C 83.49247876164492 370.17052651904 82.9315542191809 369.890064247808 82.45888703479693 369.79592306585596 C 80.30540749764492 369.422300249984 78.24312723050889 369.515460794624 76.18182760068493 370.0773659744 C 74.86777360260493 370.546110609536 74.77363242065292 370.451969427584 74.68145251332493 369.139876704128 C 74.3058684228289 365.578201986944 73.36935978986895 362.20284835904 71.96116460983694 358.923597187712 C 70.55689197905292 355.45508301516804 68.68093280119695 352.45531347776 65.86748435306896 349.923307938176 C 65.58996399377293 349.642845666944 65.21143799134092 349.362383395712 65.11925808401293 348.986799305216 C 65.40266226718092 348.706337033984 65.68018262647689 348.893638760576 65.96456744695695 348.893638760576 C 74.86777360260493 350.860797208448 82.45888703479693 358.923597187712 83.86708221482894 367.919963888 C 83.86708221482894 368.10726561459205 83.96220403409296 368.294567341184 84.05438394142095 368.4838303424 C 84.05438394142095 369.045735522176 84.05438394142095 369.60960197657596 84.05438394142095 370.0773659744 L 84.05438394142095 370.0773659744 Z " fill-rule="evenodd" fill="rgb(255,153,0)" stroke-width="1" stroke="rgba(0,0,0,0)" stroke-linejoin="miter" stroke-linecap="square"/><path d=" M 33.10831430839693 369.41745432721564 L 33.10831430839693 369.41745432721564 C 33.670219488172904 369.51061487185564 34.141906035244915 369.2301526006236 34.61065067038089 369.1360114186716 C 36.76511084484491 368.76238860279966 38.9215322939329 368.85554914743966 40.89065201642893 369.41745432721564 C 42.202744739884906 369.8861989623516 42.295905284524906 369.79205778039966 42.39004646647692 368.4799650569437 C 42.76464991966088 364.91829033975966 43.70115855262088 361.54293671185565 45.10837309534088 358.2636855405276 C 46.51362636343691 354.79517136798364 48.47980417399691 351.79540183057566 51.199111440172885 349.26339629099164 C 51.48349626065294 348.9829340197596 51.85809971383691 348.7024717485276 51.94831834654093 348.32688765803164 C 51.670797987244896 348.0464253867996 51.38641316676495 348.23372711339164 51.10595089553294 348.23372711339164 C 42.202744739884906 350.2008855612636 34.61065067038089 358.2636855405276 33.20245549034894 367.26005224081564 C 33.20245549034894 367.44735396740765 33.10831430839693 367.63465569399966 33.10831430839693 367.82391869521564 C 33.10831430839693 368.3858238749916 33.10831430839693 368.9496903293916 33.10831430839693 369.41745432721564 L 33.10831430839693 369.41745432721564 Z " fill-rule="evenodd" fill="rgb(255,153,0)" stroke-width="1" stroke="rgba(0,0,0,0)" stroke-linejoin="miter" stroke-linecap="square"/><path d=" M 59.49432246238092 342.89409968576 L 59.49432246238092 342.89409968576 C 60.52595291460494 343.92376886336 59.49432246238092 346.361633220992 60.05720827946891 347.580565399808 C 60.43083109534092 348.3317335808 61.4634421848769 348.049310034944 62.21166845393293 348.42489412544 C 64.36907054033293 349.548704484992 66.05478607966091 351.329541843584 67.46298125969292 353.29866156608 C 70.55689197905292 357.516382644992 71.96116460983694 362.485271904896 72.90061515473292 367.54634107212803 C 73.08889751863694 368.294567341184 73.18107742596493 369.045735522176 73.27521860791694 369.79592306585596 C 73.36935978986895 370.26466770099205 73.36935978986895 370.639271154176 72.61721097156493 370.451969427584 C 68.77311270852493 369.045735522176 64.83781517546896 368.294567341184 60.80739582314891 367.919963888 C 57.61934392183696 367.63950161676803 54.43129202052489 368.10726561459205 51.244220756524896 368.765273250944 C 49.277062308652944 369.139876704128 47.40110313079691 369.60960197657596 45.622227046828925 370.26466770099205 C 44.77985959582094 370.639271154176 44.592557869228926 370.26466770099205 44.68277650193295 369.60960197657596 C 44.77985959582094 368.01410506995205 45.15348241169289 366.42253071257596 45.434925320236914 364.92019435059206 C 46.46459449783697 360.42201100044804 47.96300831057289 356.204289921536 50.86961730334093 352.642615204352 C 52.27781248337294 350.766656026496 53.869386840748916 348.986799305216 56.11994947178897 348.23759239884805 C 57.99296673770891 347.580565399808 57.99296673770891 347.580565399808 58.08710791966092 345.51926576998403 C 58.08710791966092 344.674937044352 57.7125044664769 343.73646713676806 58.46465328478092 342.89409968576 C 58.838276100652934 342.89409968576 59.11775773457293 342.89409968576 59.49432246238092 342.89409968576 L 59.49432246238092 342.89409968576 Z " fill-rule="evenodd" fill="rgb(39,68,116)" stroke-width="1" stroke="rgba(0,0,0,0)" stroke-linejoin="miter" stroke-linecap="square"/><path d=" M 63.05893909150092 398.57174434918403 L 63.05893909150092 398.57174434918403 L 63.05893909150092 397.166491081088 L 66.62061380868494 397.166491081088 C 64.7446546308289 395.478814267136 62.87163736490896 393.793098727808 60.99567818705293 392.104441276544 L 60.99567818705293 374.013644144768 C 60.99567818705293 373.35857842035205 60.43083109534092 372.889833785216 59.868925915564944 372.889833785216 L 55.55804429201294 372.889833785216 C 54.99613911223696 372.889833785216 54.43129202052489 373.35857842035205 54.43129202052489 374.013644144768 L 54.43129202052489 386.20002402099203 C 52.83873702583696 384.69964893363203 51.15106021188495 383.19927384627204 49.4643640352449 381.60573821427204 C 48.90245885546892 381.137974216448 48.52491349034892 381.043833034496 47.87278967786892 381.60573821427204 C 42.43515578282893 386.480486292224 36.90240006852491 391.35523437017605 31.374547540780895 396.228021173504 C 30.99602153834894 396.51044471936 30.62239872247693 396.790906990592 30.247795269292908 397.166491081088 L 33.06026308010888 397.166491081088 L 33.06026308010888 398.478583804544 C 33.06026308010888 398.57174434918403 33.06026308010888 398.853187257728 33.06026308010888 399.04048898432 C 33.06026308010888 404.009378244224 33.06026308010888 409.07044741145603 33.06026308010888 414.03933667136005 C 33.06026308010888 414.78952421504005 33.24756480670095 414.976825941632 33.90361116842894 414.976825941632 C 36.81022016119692 414.883665396992 39.715848516652954 414.883665396992 42.62245750942094 414.976825941632 C 43.27752323383697 414.976825941632 43.46482496042893 414.694402395776 43.46482496042893 414.03933667136005 C 43.46482496042893 411.60245295104 43.46482496042893 409.07044741145603 43.46482496042893 406.538441871872 C 43.46482496042893 405.134169241088 44.30817304874893 404.29180179008006 45.71636822878094 404.29180179008006 C 47.02649967761295 404.29180179008006 48.33761176375691 404.29180179008006 49.65264639914892 404.29180179008006 C 51.99342766289294 404.29180179008006 52.74655711850892 405.04002805913603 52.74655711850892 407.38375123481603 C 52.74655711850892 409.632352591232 52.74655711850892 411.882915222272 52.65241593655696 414.13249721600005 C 52.65241593655696 414.694402395776 52.83873702583696 414.976825941632 53.401622842924894 414.883665396992 C 56.307251198380925 414.883665396992 59.21386019114891 414.883665396992 62.02534736465293 414.976825941632 C 62.77749618295695 414.976825941632 63.05893909150092 414.78952421504005 63.05893909150092 414.226638397952 L 63.05893909150092 410.94542595200005 C 63.05893909150092 406.81988478041603 63.05893909150092 402.69630488345604 63.05893909150092 398.57174434918403 L 63.05893909150092 398.57174434918403 Z " fill-rule="evenodd" fill="rgb(39,68,116)" stroke-width="1" stroke="rgba(0,0,0,0)" stroke-linejoin="miter" stroke-linecap="square"/></svg>