<?xml version="1.0" encoding="iso-8859-1"?>
<!-- Generator: Adobe Illustrator 19.0.0, SVG Export Plug-In . SVG Version: 6.00 Build 0)  -->
<svg version="1.1" id="Layer_1" xmlns="http://www.w3.org/2000/svg" xmlns:xlink="http://www.w3.org/1999/xlink" x="0px" y="0px"
	 viewBox="0 0 350 350" style="enable-background:new 0 0 350 350;" xml:space="preserve">
<g id="XMLID_1006_">
	<path id="XMLID_1007_" style="fill:#64C37D;" d="M195.999,250H175h-0.001H154c-38.107,0-69,30.893-69,69v31h89.999H175h89.999v-31
		C264.999,280.893,234.107,250,195.999,250z"/>
	<path id="XMLID_1008_" style="fill:#BF720D;" d="M255,80c0-32.292,25.512-58.613,57.479-59.937C302.392,7.813,287.108,0,270,0
		c-30.376,0-55,24.625-55,55v45h40V80z"/>
	<path id="XMLID_1009_" style="fill:#804C09;" d="M80,0C62.892,0,47.608,7.813,37.521,20.063C69.488,21.387,95,47.708,95,80v20h40
		V55C135,24.625,110.375,0,80,0z"/>
	<circle id="XMLID_1010_" style="fill:#FFB9A7;" cx="115" cy="48" r="30"/>
	<circle id="XMLID_1011_" style="fill:#FFB9A7;" cx="235" cy="48" r="30"/>
	<path id="XMLID_1012_" style="fill:#4B925E;" d="M175,250h-21c-38.107,0-69,30.893-69,69v31h90V250z"/>
	<path id="XMLID_1013_" style="fill:#FFEACF;" d="M205,250c0,16.568-13.432,30-30,30l0,0c-16.568,0-30-13.432-30-30v-30
		c0-16.568,13.432-30,30-30l0,0c16.568,0,30,13.432,30,30V250z"/>
	<ellipse id="XMLID_1014_" style="fill:#FFEACF;" cx="175" cy="145" rx="100" ry="105"/>
	<path id="XMLID_1015_" style="fill:#E8667D;" d="M175,215.858c-17.42,0-33.581-9.436-42.176-24.627
		c-0.68-1.202-0.257-2.727,0.945-3.407c1.201-0.682,2.727-0.257,3.407,0.945c7.71,13.625,22.203,22.089,37.824,22.089
		c15.622,0,30.115-8.464,37.824-22.089c0.68-1.202,2.206-1.624,3.407-0.945c1.202,0.68,1.625,2.205,0.945,3.407
		C208.581,206.422,192.42,215.858,175,215.858z"/>
	<g id="XMLID_1016_">
		<ellipse id="XMLID_1017_" style="fill:#FFB9A7;" cx="140" cy="170" rx="15" ry="10"/>
	</g>
	<g id="XMLID_1018_">
		<circle id="XMLID_1019_" style="fill:#50412E;" cx="140" cy="147.5" r="7.5"/>
	</g>
	<g id="XMLID_1020_">
		<ellipse id="XMLID_1021_" style="fill:#FFB9A7;" cx="210" cy="170" rx="15" ry="10"/>
	</g>
	<g id="XMLID_1022_">
		<circle id="XMLID_1023_" style="fill:#50412E;" cx="210" cy="147.5" r="7.5"/>
	</g>
	<path id="XMLID_1024_" style="fill:#FFD6A0;" d="M175,238c-22.528,0-44.084-4.358-63.96-12.294C128.376,240.872,150.67,250,175,250
		s46.624-9.128,63.959-24.294C219.083,233.642,197.528,238,175,238z"/>
	<path id="XMLID_1025_" style="fill:#BF720D;" d="M175.001,10L175.001,10L175.001,10H175l0,0C125,10,45.001,50.001,65.001,160l10-20
		c20,0,79.999-19.999,99.999-69.999c20.001,50,80,69.999,100,69.999l10,20C305,50.001,225.001,10,175.001,10z"/>
	<path id="XMLID_1026_" style="fill:#804C09;" d="M175,10C125,10,45,50,65,160l10-20c20,0,80-20,100-70C175,40,175,30,175,10z"/>
	<circle id="XMLID_1027_" style="fill:#FFEACF;" cx="75" cy="160" r="20"/>
	<circle id="XMLID_1028_" style="fill:#FFEACF;" cx="275" cy="160" r="20"/>
</g>
<g>
</g>
<g>
</g>
<g>
</g>
<g>
</g>
<g>
</g>
<g>
</g>
<g>
</g>
<g>
</g>
<g>
</g>
<g>
</g>
<g>
</g>
<g>
</g>
<g>
</g>
<g>
</g>
<g>
</g>
</svg>
