<?xml version="1.0" standalone="no"?><!-- Generator: Gravit.io --><svg xmlns="http://www.w3.org/2000/svg" xmlns:xlink="http://www.w3.org/1999/xlink" style="isolation:isolate" viewBox="200.806588672128 64.01067769554629 74.1934113278719 82.51217315445058" width="74.1934113278719" height="82.51217315445058"><path d=" M 267.6645446203827 106.48018748606592 L 267.6645446203827 106.48018748606592 L 267.6645446203827 106.2501546494226 L 267.6645446203827 103.24035658681328 L 274.9999999999999 103.24035658681328 C 271.1392340107276 98.84551870778239 267.2724039911059 94.67587086883407 263.4116380018337 90.74594145965114 L 263.4116380018337 67.59737389847453 C 263.4116380018337 65.97987984712859 262.44543583279074 64.82245146906985 261.28720603600914 64.82245146906985 L 252.39329485653388 64.82245146906985 C 251.23708640320206 64.82245146906985 250.2708842341591 65.97987984712859 250.2708842341591 67.59737389847453 L 250.2708842341591 76.39431385137766 C 246.79013081346443 72.46196304391424 243.31544142311952 68.75480227653327 240.0267156301636 65.05490570399365 C 238.67645820564326 63.662601692730505 238.09835397897734 63.662601692730505 236.74607521100722 65.05490570399365 C 225.53974712486854 76.85437952466464 214.33139769527986 88.66111754017697 203.1230482656913 100.69788839233274 C 202.35089506783686 101.39040830054375 201.5787418699823 102.31538244367869 200.806588672128 103.24035658681328 L 206.40975271519733 103.24035658681328 L 206.40975271519733 106.02012181277894 C 206.40975271519733 106.48018748606592 206.40975271519733 106.94267455763361 206.40975271519733 107.64245866068586 C 206.40975271519733 119.90441955292397 206.60380168638596 131.94119040507985 206.40975271519733 144.21041549215965 C 206.40975271519733 146.05794238014903 206.7958293141245 146.52285084999687 208.34013570983348 146.52285084999687 C 214.33139769527986 146.29039661507295 220.1306320529876 146.29039661507295 226.11987269498422 146.52285084999687 C 227.47013011950457 146.52285084999687 227.85620671843174 145.82790954350537 227.85620671843174 144.21041549215965 C 227.6641790906932 138.1883979686611 227.6641790906932 131.94119040507985 227.85620671843174 125.92401567814227 C 227.85620671843174 122.4541519422462 229.40051311414072 120.36932802277192 232.30316230816936 120.36932802277192 C 235.00569850065995 120.36932802277192 237.71227738005018 120.36932802277192 240.41481357254065 120.36932802277192 C 245.24582441775556 120.36932802277192 246.60416721607555 122.21685491076141 246.60416721607555 128.00641819933594 C 246.60416721607555 133.56352725298655 246.60416721607555 138.88333927515248 246.60416721607555 144.4404483288031 C 246.60416721607555 145.82790954350537 246.79013081346443 146.29039661507295 248.14847361178442 146.29039661507295 C 253.93962259569275 146.29039661507295 259.7368356099506 146.29039661507295 265.5340486242085 146.29039661507295 C 267.08037636336724 146.52285084999687 267.6645446203827 146.05794238014903 267.6645446203827 144.67048116544663 L 267.6645446203827 136.57090391731526 C 267.6645446203827 126.61895698463366 267.6645446203827 116.66701005195205 267.6645446203827 106.48018748606592 L 267.6645446203827 106.48018748606592 Z " fill-rule="evenodd" fill="rgb(255,153,0)" stroke-width="1" stroke="rgba(0,0,0,0)" stroke-linejoin="miter" stroke-linecap="square"/></svg>