<?xml version="1.0" standalone="no"?><!-- Generator: Gravit.io --><svg xmlns="http://www.w3.org/2000/svg" xmlns:xlink="http://www.w3.org/1999/xlink" style="isolation:isolate" viewBox="135.07077202201606 364.17259249166074 70.39406880460797 54.42302830260547" width="70.39406880460797" height="54.42302830260547"><path d=" M 184.65473642867198 379.7908217211142 L 184.65473642867198 379.7908217211142 L 184.65473642867198 366.47965084802627 C 184.65473642867198 365.54314221506627 183.90454888499198 364.69979412674627 182.87586034470405 364.69979412674627 L 176.03199254425613 364.69979412674627 C 175.00134272934406 364.69979412674627 174.15603336640015 365.54314221506627 174.15603336640015 366.47965084802627 L 174.15603336640015 372.1987276516103 C 171.533809194112 369.75988265666626 168.8154825652481 367.32299893634615 166.09519466176005 364.8880764906502 C 165.159666666112 363.9505872203782 164.59776148633603 363.9505872203782 163.5641697594881 364.79295467138616 C 154.75510478579213 372.66747228674626 145.848956718208 380.54002862748223 136.942808650624 388.31844378626624 C 136.28970420083203 388.88427151529027 135.72485710912008 389.3520355131142 135.07077202201606 390.0080818748422 L 139.56699409753605 390.0080818748422 L 139.56699409753605 391.9752403227143 C 139.56699409753605 392.2586445058822 139.56699409753605 392.63324795906624 139.56699409753605 393.00785141225026 C 139.56699409753605 401.0677094795782 139.66113527948812 409.1285481842183 139.56699409753605 417.1913481634822 C 139.56699409753605 418.31515852303414 139.945520099968 418.5956207942662 141.07031109683214 418.5956207942662 C 145.75481553625616 418.5024602496262 150.44030061299202 418.5024602496262 155.03556705702408 418.5956207942662 C 156.253518598528 418.5956207942662 156.44082032512006 418.22199797839426 156.44082032512006 417.1913481634822 C 156.3466791431681 413.15798689922633 156.44082032512006 409.1285481842183 156.44082032512006 405.0049682872582 C 156.53398086976006 402.6632063862023 157.75095177395212 401.4432935700743 160.09565558694408 401.34817175081025 C 162.15989712870407 401.34817175081025 164.3143573031681 401.34817175081025 166.47077875225614 401.34817175081025 C 170.03245346944004 401.34817175081025 171.2494243736321 402.47590465961025 171.3474881048321 405.94441883215427 C 175.75153027302406 404.2547807435782 178.09329217408015 400.97356829762623 176.40659599744004 394.5062652249861 L 176.31343545280004 394.41310468034624 C 176.03199254425613 393.1951531388422 175.84469081766406 392.0703621419783 175.84469081766406 390.9445905078022 C 175.75153027302406 388.2282251535622 176.5938977240321 385.88352134057027 178.09329217408015 383.9144016180743 C 179.5946478987521 382.0413843521543 181.75106934784014 380.63318917212234 184.18599179353612 379.8839822657543 C 184.37427415744003 379.7908217211142 184.46743470208014 379.7908217211142 184.65473642867198 379.7908217211142 L 184.65473642867198 379.7908217211142 Z " fill-rule="evenodd" fill="rgb(255,153,0)" stroke-width="1" stroke="rgba(0,0,0,0)" stroke-linejoin="miter" stroke-linecap="square"/><path d=" M 187.18576133094405 394.3179828610822 L 187.18576133094405 394.3179828610822 L 188.2164111458561 394.3179828610822 C 188.2164111458561 394.1316617718022 188.2164111458561 394.03752058985026 188.2164111458561 393.9433794078983 C 188.2164111458561 393.85119950057026 188.2164111458561 393.75607768130624 188.31055232780807 393.66291713666635 C 188.31055232780807 393.56975659202624 188.49785405440014 393.56975659202624 188.59101459904002 393.56975659202624 L 193.18628104307209 393.56975659202624 C 193.28042222502404 393.56975659202624 193.37358276966415 393.56975659202624 193.4677239516161 393.66291713666635 C 193.5608844962561 393.75607768130624 193.5608844962561 393.85119950057026 193.5608844962561 393.9433794078983 C 193.4677239516161 394.5062652249861 193.28042222502404 396.4753849474822 192.62143395136002 396.9441295826183 C 192.05952877158404 397.3197136731143 191.21618068326404 397.3197136731143 190.8425578673921 397.3197136731143 C 190.466973776896 397.3197136731143 189.623625688576 397.3197136731143 189.1529197788161 396.9441295826183 C 188.68809769292807 396.6626866740743 188.49785405440014 395.72715867842624 188.31055232780807 394.97697113474624 L 187.09260078630416 394.97697113474624 C 186.9052990597121 395.72715867842624 186.62483678848002 396.6626866740743 186.25023333529612 396.9441295826183 C 185.78050806284807 397.3197136731143 184.8410575179521 397.3197136731143 184.46743470208014 397.3197136731143 C 184.18599179353612 397.3197136731143 183.249483160576 397.3197136731143 182.7817191627521 396.9441295826183 C 182.126653438336 396.4753849474822 181.9383710744321 394.5062652249861 181.84128798054405 393.9433794078983 C 181.84128798054405 393.85119950057026 181.84128798054405 393.75607768130624 181.9383710744321 393.66291713666635 C 181.9383710744321 393.56975659202624 182.126653438336 393.56975659202624 182.21687207104003 393.56975659202624 L 186.81115787776014 393.56975659202624 C 186.9052990597121 393.56975659202624 186.9984596043521 393.56975659202624 187.09260078630416 393.66291713666635 C 187.18576133094405 393.75607768130624 187.18576133094405 393.85119950057026 187.18576133094405 393.9433794078983 C 187.18576133094405 394.03752058985026 187.18576133094405 394.1316617718022 187.18576133094405 394.3179828610822 L 187.18576133094405 394.3179828610822 Z " fill-rule="evenodd" fill="rgb(39,68,116)" stroke-width="1" stroke="rgba(0,0,0,0)" stroke-linejoin="miter" stroke-linecap="square"/><path d=" M 187.74766651072014 399.6624562114822 L 187.74766651072014 399.6624562114822 C 188.40371287244807 399.38199394025025 189.06172050880002 399.4761351222023 189.5285038693121 400.1312008466183 C 189.71874750784013 400.31850257321025 189.81190805248002 400.5058042998022 189.90506859712002 400.6931060263943 C 190.0923703237121 400.8813883902983 190.18651150566404 401.16185066153025 190.3738132322561 401.34817175081025 C 190.56111495884807 401.5364541147143 190.8425578673921 401.6286340220422 191.12302013862404 401.6286340220422 C 191.49762359180806 401.6286340220422 191.68492531840013 401.4432935700743 191.68492531840013 401.0677094795782 C 191.68492531840013 401.0677094795782 191.68492531840013 400.8813883902983 191.68492531840013 400.78626657103416 C 192.05952877158404 401.16185066153025 192.05952877158404 401.81691638594623 191.59078413644806 402.1022818437383 C 191.40446304716806 402.1925004764423 191.30934122790404 402.2886029330182 191.12302013862404 402.3788215657222 C 190.27967205030416 402.5661232923143 189.5285038693121 402.47590465961025 188.7783163256321 402.0042181125383 C 188.31055232780807 401.81691638594623 188.12226996390405 401.5364541147143 187.74766651072014 400.8813883902983 C 187.6554866033921 400.8813883902983 187.6554866033921 400.97356829762623 187.56036478412807 401.0677094795782 C 187.09260078630416 401.9110575678982 186.34339387993612 402.3788215657222 185.40786588428807 402.47590465961025 C 184.93519869990405 402.47590465961025 184.56059524672014 402.47590465961025 184.092831248896 402.2886029330182 C 183.7182277957121 402.1022818437383 183.53092606912003 401.9110575678982 183.43678488716807 401.5364541147143 C 183.34362434252807 401.2559918434822 183.43678488716807 401.0677094795782 183.7182277957121 400.8813883902983 C 183.7182277957121 400.97356829762623 183.7182277957121 401.0677094795782 183.7182277957121 401.16185066153025 C 183.7182277957121 401.4432935700743 183.90454888499198 401.6286340220422 184.18599179353612 401.6286340220422 C 184.56059524672014 401.72375584130623 184.8410575179521 401.5364541147143 185.12250042649612 401.2559918434822 C 185.30980215308807 401.0677094795782 185.40786588428807 400.78626657103416 185.6844056062721 400.4126437551622 C 185.87170733286416 400.0380403019783 186.1551115160321 399.7565973934343 186.62483678848002 399.5692956668422 C 186.9984596043521 399.4761351222023 187.37306305753611 399.4761351222023 187.74766651072014 399.6624562114822 L 187.74766651072014 399.6624562114822 Z " fill-rule="evenodd" fill="none" stroke-width="1" stroke="rgba(0,0,0,0)" stroke-linejoin="miter" stroke-linecap="square"/><path d=" M 193.84134676748806 392.0703621419783 L 193.84134676748806 392.0703621419783 C 193.84134676748806 392.0703621419783 193.28042222502404 390.5699870546183 193.28042222502404 389.53933723970624 C 193.28042222502404 389.53933723970624 187.46720423948807 393.00785141225026 185.40786588428807 393.00785141225026 C 185.40786588428807 393.00785141225026 189.25000287270404 391.1318922343943 189.90506859712002 389.72761960361026 C 188.0281287819521 391.03775105244233 184.092831248896 393.00785141225026 182.7817191627521 392.9137102302983 C 182.7817191627521 392.9137102302983 184.56059524672014 391.9752403227143 184.8410575179521 391.03775105244233 C 180.62529771366405 392.0703621419783 180.81259944025612 395.44277385794624 180.62529771366405 398.6337676711943 C 180.62529771366405 398.6337676711943 179.87511016998417 394.97697113474624 179.5946478987521 394.1316617718022 C 177.81086862822406 388.2282251535622 182.028589707136 383.53979816489027 187.84082705536002 383.4456569829382 C 194.77785540044806 383.2593358936582 198.05906784640013 388.31844378626624 195.71534467072013 394.5062652249861 C 195.24660003558404 395.62909494722624 194.21595022067197 399.38199394025025 194.21595022067197 399.38199394025025 C 194.3110720399361 396.9441295826183 194.77785540044806 394.41310468034624 193.84134676748806 392.0703621419783 L 193.84134676748806 392.0703621419783 Z " fill-rule="evenodd" fill="none" stroke-width="1" stroke="rgba(0,0,0,0)" stroke-linejoin="miter" stroke-linecap="square"/><path d=" M 182.31297452761612 404.81668592335416 C 173.78241055052808 409.6894727266823 169.47152892697602 406.88092746511427 169.47152892697602 418.5956207942662 L 187.46720423948807 418.5956207942662 L 187.74766651072014 418.5956207942662 L 205.46484082662403 418.5956207942662 C 205.46484082662403 407.3486914629382 201.05883738380805 409.6894727266823 192.53023468134404 404.81668592335416 C 191.12302013862404 406.22193919145025 189.4373045992961 407.16138973634634 187.56036478412807 407.16138973634634 C 185.59418697356807 407.16138973634634 183.81236897766405 406.22193919145025 182.31297452761612 404.81668592335416 L 182.31297452761612 404.81668592335416 Z " fill-rule="evenodd" fill="rgb(39,68,116)" stroke-width="1" stroke="rgba(0,0,0,0)" stroke-linejoin="miter" stroke-linecap="square"/></svg>