<?xml version="1.0" standalone="no"?><!-- Generator: Gravit.io --><svg xmlns="http://www.w3.org/2000/svg" xmlns:xlink="http://www.w3.org/1999/xlink" style="isolation:isolate" viewBox="114.77291980433597 63.99910415831074 78.22396983157114 81.58566903902691" width="78.22396983157114" height="81.58566903902691"><path d=" M 153.2711159420187 89.24257136891879 L 153.2711159420187 89.24257136891879 L 155.51101873988773 89.24257136891879 C 155.51101873988773 88.81016767107963 155.51101873988773 88.59169001322425 155.51101873988773 88.37321235536888 C 155.51101873988773 88.15928631538532 155.51101873988773 87.93853284859392 155.7156149992552 87.72233099967457 C 155.7156149992552 87.50612915075476 156.12267630695578 87.50612915075476 156.325141355288 87.50612915075476 L 166.3119962656724 87.50612915075476 C 166.51659252503987 87.50612915075476 166.71905757337277 87.50612915075476 166.92365383274046 87.72233099967457 C 167.1261188810729 87.93853284859392 167.1261188810729 88.15928631538532 167.1261188810729 88.37321235536888 C 166.92365383274046 89.67952668462954 166.51659252503987 94.24935102810696 165.08441870946626 95.33718769951247 C 163.86323478636564 96.2088225219984 162.03039329619696 96.2088225219984 161.2184018918315 96.2088225219984 C 160.40214806539575 96.2088225219984 158.56930657522707 96.2088225219984 157.54632527838908 95.33718769951247 C 156.53613124776098 94.68403053488191 156.12267630695578 92.51290880994293 155.7156149992552 90.77191497390709 L 153.06865089368625 90.77191497390709 C 152.6615895859859 92.51290880994293 152.05206322995286 94.68403053488191 151.2379406145526 95.33718769951247 C 150.21709052874917 96.2088225219984 148.17539035714276 96.2088225219984 147.36339895277752 96.2088225219984 C 146.75174138570947 96.2088225219984 144.7164348472079 96.2088225219984 143.69984718347519 95.33718769951247 C 142.27619821204144 94.24935102810696 141.8670056933065 89.67952668462954 141.6560158008333 88.37321235536888 C 141.6560158008333 88.15928631538532 141.6560158008333 87.93853284859392 141.8670056933065 87.72233099967457 C 141.8670056933065 87.50612915075476 142.27619821204144 87.50612915075476 142.47226962726904 87.50612915075476 L 152.45699332661843 87.50612915075476 C 152.6615895859859 87.50612915075476 152.86405463431856 87.50612915075476 153.06865089368625 87.72233099967457 C 153.2711159420187 87.93853284859392 153.2711159420187 88.15928631538532 153.2711159420187 88.37321235536888 C 153.2711159420187 88.59169001322425 153.2711159420187 88.81016767107963 153.2711159420187 89.24257136891879 L 153.2711159420187 89.24257136891879 Z " fill-rule="evenodd" fill="rgb(255,153,0)" stroke-width="1" stroke="rgba(0,0,0,0)" stroke-linejoin="miter" stroke-linecap="square"/><path d=" M 154.37971628154241 104.12547273067617 L 154.37971628154241 104.12547273067617 C 155.80549646401073 103.47459137498163 157.23553906854931 103.69306903283746 158.24999552124746 105.21330940208168 C 158.66345046205288 105.64798890885663 158.86591551038532 106.08266841563136 159.068380558718 106.51734792240654 C 159.47544186641835 106.95430323811752 159.6800381257858 107.60518459381206 160.08709943348617 108.03758829165099 C 160.49416074118653 108.47454360736197 161.10581830825436 108.6884696473453 161.71534466428716 108.6884696473453 C 162.52946727968765 108.6884696473453 162.936528587388 108.25834175844238 162.936528587388 107.38670693595623 C 162.936528587388 107.38670693595623 162.936528587388 106.95430323811752 162.936528587388 106.7335497713259 C 163.7506512027885 107.60518459381206 163.7506512027885 109.12542496305628 162.73193232802032 109.78768536343091 C 162.3270022313552 109.99705978554243 162.12027476095227 110.22008906126962 161.71534466428716 110.42946348338114 C 159.8825031741187 110.86414299015632 158.24999552124746 110.6547685680448 156.61961907941122 109.56010446983146 C 155.60303141567806 109.12542496305628 155.19383889694268 108.47454360736197 154.37971628154241 106.95430323811752 C 154.17938244424477 106.95430323811752 154.17938244424477 107.16822927810085 153.97265497384205 107.38670693595623 C 152.95606731010912 109.34390262091165 151.32782207930813 110.42946348338114 149.2946467518418 110.6547685680448 C 148.26740303293332 110.6547685680448 147.45328041753282 110.6547685680448 146.43669275379943 110.22008906126962 C 145.62257013839917 109.78768536343091 145.2155088306988 109.34390262091165 145.01091257133135 108.47454360736197 C 144.80844752299868 107.82366225166743 145.01091257133135 107.38670693595623 145.62257013839917 106.95430323811752 C 145.62257013839917 107.16822927810085 145.62257013839917 107.38670693595623 145.62257013839917 107.60518459381206 C 145.62257013839917 108.25834175844238 146.02750023506405 108.6884696473453 146.63915780213233 108.6884696473453 C 147.45328041753282 108.90922311413692 148.06280677356563 108.47454360736197 148.67446434063368 107.82366225166743 C 149.0815256483338 107.38670693595623 149.2946467518418 106.7335497713259 149.8956482637343 105.866466566712 C 150.30270957143466 104.99710755316232 150.91862956057275 104.34395038853177 151.93947964637573 103.90927088175658 C 152.75147105074143 103.69306903283746 153.56559366614192 103.69306903283746 154.37971628154241 104.12547273067617 L 154.37971628154241 104.12547273067617 Z " fill-rule="evenodd" fill="none" stroke-width="1" stroke="rgba(0,0,0,0)" stroke-linejoin="miter" stroke-linecap="square"/><path d=" M 167.7356452371057 84.02641728761932 L 167.7356452371057 84.02641728761932 C 167.7356452371057 84.02641728761932 166.51659252503987 80.54442961554741 166.51659252503987 78.15255442381704 C 166.51659252503987 78.15255442381704 153.88277350908652 86.2020906304299 149.40723033541894 86.2020906304299 C 149.40723033541894 86.2020906304299 157.75731517086183 81.84846813587228 159.18096414229512 78.58950973952801 C 155.10182622115235 81.62999047801691 146.54927633737657 86.2020906304299 143.69984718347519 85.98361297257452 C 143.69984718347519 85.98361297257452 147.56586400110996 83.8056638208277 148.17539035714276 81.62999047801691 C 139.0133141173344 84.02641728761932 139.42037542503476 91.85292421850454 139.0133141173344 99.25840649623115 C 139.0133141173344 99.25840649623115 137.38293767549862 90.77191497390709 136.7734113194656 88.81016767107963 C 132.89673844665526 75.10979787639212 142.06307710853366 64.2291553534019 154.694764913452 64.01067769554629 C 169.77095177560705 63.578273997707356 176.90198389898433 75.31917229850364 171.8083895251434 89.67952668462954 C 170.789670650375 92.28532791634348 168.54976785250597 100.99484871439495 168.54976785250597 100.99484871439495 C 168.75649532290913 95.33718769951247 169.77095177560705 89.46332483571018 167.7356452371057 84.02641728761932 L 167.7356452371057 84.02641728761932 Z " fill-rule="evenodd" fill="none" stroke-width="1" stroke="rgba(0,0,0,0)" stroke-linejoin="miter" stroke-linecap="square"/><path d=" M 142.681128308707 113.60738183767694 C 124.14172351454727 124.91587644063475 114.77291980433597 118.39795964794598 114.77291980433597 145.58477319733765 L 153.88277350908652 145.58477319733765 L 154.49229986511955 145.58477319733765 L 192.9968896359071 145.58477319733765 C 192.9968896359071 119.48352051041525 183.42135845529356 124.91587644063475 164.88621608320386 113.60738183767694 C 161.8279282478643 116.86861604295746 158.1643764785622 119.04884100364052 154.0852385574192 119.04884100364052 C 149.81216043208406 119.04884100364052 145.939749981344 116.86861604295746 142.681128308707 113.60738183767694 L 142.681128308707 113.60738183767694 Z " fill-rule="evenodd" fill="rgb(39,68,116)" stroke-width="1" stroke="rgba(0,0,0,0)" stroke-linejoin="miter" stroke-linecap="square"/></svg>