<?xml version="1.0" standalone="no"?><!-- Generator: Gravit.io --><svg xmlns="http://www.w3.org/2000/svg" xmlns:xlink="http://www.w3.org/1999/xlink" style="isolation:isolate" viewBox="135.07077202201606 294.08103271942 70.39504944191998 59.065344034401676" width="70.39504944191998" height="59.065344034401676"><path d=" M 180.15851435315204 308.24789742390175 L 180.15851435315204 308.24789742390175 L 180.15851435315204 296.2478386369577 C 180.15851435315204 295.3113300039977 179.40538489753607 294.5631037349417 178.56203680921604 294.5631037349417 L 172.28203546316806 294.5631037349417 C 171.43868737484803 294.5631037349417 170.59533928652806 295.3113300039977 170.59533928652806 296.2478386369577 L 170.59533928652806 301.4050102607657 C 168.16139747814404 299.1544476297257 165.72353312051206 296.99900681794975 163.28468812556804 294.7504054615337 C 162.44134003724804 293.9050960985897 161.87747358284804 293.81193555394975 160.94096494988804 294.7504054615337 C 152.88012624524805 301.8737548959017 144.82026817792004 308.9971043302697 136.76041011059203 316.1214344019497 C 136.19458238156804 316.5891983997737 135.63267720179206 317.0579430349097 135.07077202201606 317.6198482146857 L 139.19435191897603 317.6198482146857 L 139.19435191897603 319.40166621058967 C 139.19435191897603 319.68310911913375 139.19435191897603 319.9645520276777 139.19435191897603 320.33817484354967 C 139.19435191897603 327.6488260045097 139.19435191897603 334.96045780278166 139.19435191897603 342.3672114203177 C 139.19435191897603 343.3988418725417 139.47579482752005 343.6793041437737 140.50644464243206 343.5851629618217 C 144.72710763328004 343.5851629618217 148.94384807488004 343.5851629618217 153.25472969843204 343.5851629618217 C 154.28832142528006 343.5851629618217 154.47562315187204 343.3047006905897 154.47562315187204 342.3672114203177 C 154.47562315187204 338.7094342465577 154.47562315187204 334.96045780278166 154.47562315187204 331.30464190364575 C 154.56584178457604 329.1511623664937 155.69259405606405 328.0244100950057 157.75683559782402 328.0244100950057 C 159.72301340838405 328.0244100950057 161.68919121894405 328.0244100950057 163.56515039680002 328.0244100950057 C 166.94050402470404 328.0244100950057 167.97115383961602 328.9618993652777 168.06431438425605 332.0558100846377 C 172.00451510387202 330.5564156345897 174.25213582297604 327.6488260045097 172.65958082828803 321.65124820431765 L 172.56642028364803 321.5580876596777 C 172.28203546316806 320.5264572074537 172.19181683046403 319.4958073925417 172.09473373657605 318.46417694031766 C 172.09473373657605 316.0272932199977 172.84688255488004 313.86989113359766 174.25213582297604 312.09101504962973 C 175.56226727180805 310.3082164164137 177.43822644966406 309.0912455122217 179.68976971801604 308.4351991504937 C 179.87707144460805 308.34203860585365 179.97023198924805 308.34203860585365 180.15851435315204 308.24789742390175 L 180.15851435315204 308.24789742390175 Z " fill-rule="evenodd" fill="rgb(39,68,116)" stroke-width="1" stroke="rgba(0,0,0,0)" stroke-linejoin="miter" stroke-linecap="square"/><path d=" M 183.2534057098241 322.85874378829226 L 183.2534057098241 322.85874378829226 L 184.28405552473615 322.85874378829226 C 184.28405552473615 322.76460260634025 184.28405552473615 322.6714420617002 184.28405552473615 322.57828151706025 C 184.18991434278414 322.48414033510824 184.28405552473615 322.39097979046824 184.28405552473615 322.2968386085162 C 184.37721606937612 322.2968386085162 184.47135725132813 322.2968386085162 184.5654984332801 322.2968386085162 L 186.25023333529612 322.2968386085162 L 184.47135725132813 323.8884129658922 C 184.37721606937612 323.7952524212522 184.37721606937612 323.6079506946602 184.37721606937612 323.51479015002025 L 183.15730325324813 323.51479015002025 C 183.0670846205441 324.1698558744362 182.87684098201612 325.01418460006823 182.50125689152011 325.2956275086122 C 181.9393517117441 325.5760897798442 181.19014480537612 325.6721922364202 180.90968253414414 325.6721922364202 C 180.53507908096012 325.6721922364202 179.78587217459213 325.5760897798442 179.31418562752012 325.2956275086122 C 178.6591199031041 324.82492159885226 178.47083753920015 323.1401866968362 178.47083753920015 322.57828151706025 C 178.47083753920015 322.48414033510824 178.47083753920015 322.39097979046824 178.5649787211521 322.2968386085162 C 178.5649787211521 322.2968386085162 178.6591199031041 322.2968386085162 178.7522804477441 322.2968386085162 L 182.97000152665612 322.2968386085162 C 183.0670846205441 322.2968386085162 183.15730325324813 322.2968386085162 183.15730325324813 322.2968386085162 C 183.2534057098241 322.39097979046824 183.34460497984014 322.48414033510824 183.34460497984014 322.57828151706025 C 183.34460497984014 322.6714420617002 183.2534057098241 322.76460260634025 183.2534057098241 322.85874378829226 L 183.2534057098241 322.85874378829226 Z " fill-rule="evenodd" fill="rgb(255,153,0)" stroke-width="1" stroke="rgba(0,0,0,0)" stroke-linejoin="miter" stroke-linecap="square"/><path d=" M 188.40567414707206 319.4958073925417 L 188.40567414707206 319.4958073925417 C 188.21837242048005 319.0270627574057 188.03107069388804 318.1827340317737 188.03107069388804 317.5257070327337 C 188.03107069388804 317.5257070327337 182.78368043737603 320.6196177520937 180.90772125952003 320.6196177520937 C 180.90772125952003 320.6196177520937 184.37525479475204 318.9339022127657 184.93715997452804 317.6198482146857 C 183.25144443520006 318.8397610308137 179.59660917337604 320.6196177520937 178.46887626457604 320.5264572074537 C 178.46887626457604 320.5264572074537 180.06437317120006 319.68310911913375 180.34483544243204 318.9339022127657 C 176.50171781670403 319.7762696637737 176.69000018060805 322.87018038313374 176.50171781670403 325.7758087385897 C 176.50171781670403 325.7758087385897 175.74956899840004 322.4024163853097 175.56226727180805 321.65124820431765 C 173.87753236979205 316.3087361285417 177.81381054016003 311.9978545049897 183.06414270860805 311.90371332303766 C 187.46916551411203 311.90371332303766 190.18847278028804 314.0581734975017 190.75037796006404 317.2452447615017 L 188.40567414707206 319.4958073925417 Z " fill-rule="evenodd" fill="none" stroke-width="1" stroke="rgba(0,0,0,0)" stroke-linejoin="miter" stroke-linecap="square"/><path d=" M 202.84065537971205 309.5590095100457 L 202.84065537971205 309.5590095100457 L 205.46582146393604 312.2783167762217 L 161.68919121894405 353.1463767538217 L 159.16110822860804 350.4290307622697 L 202.84065537971205 309.5590095100457 Z " fill-rule="evenodd" fill="none" stroke-width="1" stroke="rgba(0,0,0,0)" stroke-linejoin="miter" stroke-linecap="square"/><path d=" M 176.03395381888004 343.5851629618217 L 182.78368043737603 343.5851629618217 L 182.97098216396805 343.5851629618217 L 199.09069829862403 343.5851629618217 C 199.09069829862403 333.9307886251817 195.52902358144004 335.3350612559657 188.59297587366405 331.8685083580457 L 176.03395381888004 343.5851629618217 Z " fill-rule="evenodd" fill="rgb(255,153,0)" stroke-width="1" stroke="rgba(0,0,0,0)" stroke-linejoin="miter" stroke-linecap="square"/></svg>