<?xml version="1.0" standalone="no"?><!-- Generator: Gravit.io --><svg xmlns="http://www.w3.org/2000/svg" xmlns:xlink="http://www.w3.org/1999/xlink" style="isolation:isolate" viewBox="1106.0000000000002 460.23688733547806 122.1245875316547 79.0923696539179" width="122.1245875316547" height="79.0923696539179"><path d=" M 1161.77863793065 462.4803194515165 C 1160.396321107093 460.2533491957914 1157.4704376791367 459.5689608129795 1155.243713606283 460.95127763653653 L 1142.2900632729045 468.9928411345755 C 1141.154175503734 469.6981550614661 1140.3683597778581 470.8497985344135 1140.1261158322873 472.1641688854323 C 1139.8838718867164 473.4787854193226 1140.2071099970158 474.835006858499 1141.0168054614287 475.899009229187 L 1146.6484848302068 483.2980354325717 L 1158.5767835037252 483.2980354325717 L 1151.730930212635 474.303498038898 L 1160.2498422985416 469.01524377588333 C 1162.4765663713952 467.6329269523264 1163.160954754207 464.7070435243701 1161.77863793065 462.4803194515165 Z " fill="rgb(39,68,116)" stroke-width="1" stroke="rgba(0,0,0,0)" stroke-linejoin="miter" stroke-linecap="butt"/><path d=" M 1226.6442649830847 513.3832806299793 L 1223.6245289177455 509.20161837442475 L 1204.2307324620838 509.20161837442475 C 1202.5663368578146 509.20161837442475 1201.2170930839397 507.78508213172717 1201.2170930839397 506.0376761097134 C 1201.2170930839397 504.29027008769964 1202.5663368578146 502.87373384500205 1204.2307324620838 502.87373384500205 L 1219.0550618649993 502.87373384500205 L 1217.016423462137 500.05075485733903 C 1213.6913840611035 495.4461504285216 1208.9570719661199 492.2809772494527 1203.6986792603245 491.01362782689324 L 1108.066747381501 491.01362782689324 L 1108.066747381501 525.6564815064903 L 1220.836935941759 525.6564815064903 C 1224.8616874424176 525.6564815064903 1228.124587531655 522.2310930322301 1228.124587531655 518.0053640426743 C 1228.124587531655 516.3362441738022 1227.6047277042858 514.7131605019035 1226.6442649830847 513.3832806299793 Z " fill="rgb(39,68,116)" stroke-width="1" stroke="rgba(0,0,0,0)" stroke-linejoin="miter" stroke-linecap="butt"/><path d=" M 1147.194347847937 509.20161837442475 L 1141.9776940006316 509.20161837442475 C 1140.3132983963624 509.20161837442475 1138.9640546224873 507.78508213172717 1138.9640546224873 506.0376761097134 C 1138.9640546224873 504.29027008769964 1140.3132983963624 502.87373384500205 1141.9776940006316 502.87373384500205 L 1147.194347847937 502.87373384500205 C 1148.8587434522062 502.87373384500205 1150.2079872260813 504.29027008769964 1150.2079872260813 506.0376761097134 C 1150.2079872260813 507.78508213172717 1148.8585089642372 509.20161837442475 1147.194347847937 509.20161837442475 Z " fill="rgb(255,153,0)" stroke-width="1" stroke="rgba(0,0,0,0)" stroke-linejoin="miter" stroke-linecap="butt"/><path d=" M 1167.3654719209771 509.20161837442475 L 1162.1488180736717 509.20161837442475 C 1160.4844224694025 509.20161837442475 1159.1351786955274 507.78508213172717 1159.1351786955274 506.0376761097134 C 1159.1351786955274 504.29027008769964 1160.4844224694025 502.87373384500205 1162.1488180736717 502.87373384500205 L 1167.3654719209771 502.87373384500205 C 1169.0298675252463 502.87373384500205 1170.3791112991212 504.29027008769964 1170.3791112991212 506.0376761097134 C 1170.3791112991212 507.78508213172717 1169.0298675252463 509.20161837442475 1167.3654719209771 509.20161837442475 Z " fill="rgb(255,153,0)" stroke-width="1" stroke="rgba(0,0,0,0)" stroke-linejoin="miter" stroke-linecap="butt"/><path d=" M 1187.5368304819863 509.20161837442475 L 1182.3201766346806 509.20161837442475 C 1180.6557810304116 509.20161837442475 1179.3065372565366 507.78508213172717 1179.3065372565366 506.0376761097134 C 1179.3065372565366 504.29027008769964 1180.6557810304116 502.87373384500205 1182.3201766346806 502.87373384500205 L 1187.5368304819863 502.87373384500205 C 1189.2012260862555 502.87373384500205 1190.5504698601303 504.29027008769964 1190.5504698601303 506.0376761097134 C 1190.5504698601303 507.78508213172717 1189.2012260862555 509.20161837442475 1187.5368304819863 509.20161837442475 Z " fill="rgb(255,153,0)" stroke-width="1" stroke="rgba(0,0,0,0)" stroke-linejoin="miter" stroke-linecap="butt"/><path d=" M 1223.338142050216 529.8379225610049 L 1110.7456672141957 529.8379225610049 C 1108.1248043640464 529.8379225610049 1106.0000000000002 531.9627269250512 1106.0000000000002 534.5835897752004 C 1106.0000000000002 537.2044526253496 1108.1248043640464 539.329256989396 1110.7456672141957 539.329256989396 L 1223.338142050216 539.329256989396 C 1225.9590049003652 539.329256989396 1228.0838092644117 537.2044526253496 1228.0838092644117 534.5835897752004 C 1228.0838092644117 531.9627269250512 1225.9590049003652 529.8379225610049 1223.338142050216 529.8379225610049 Z " fill="rgb(39,68,116)" stroke-width="1" stroke="rgba(0,0,0,0)" stroke-linejoin="miter" stroke-linecap="butt"/></svg>