<?xml version="1.0" encoding="iso-8859-1"?>
<!-- Generator: Adobe Illustrator 19.0.0, SVG Export Plug-In . SVG Version: 6.00 Build 0)  -->
<svg version="1.1" id="Layer_1" xmlns="http://www.w3.org/2000/svg" xmlns:xlink="http://www.w3.org/1999/xlink" x="0px" y="0px"
	 viewBox="0 0 508 508" style="enable-background:new 0 0 508 508;" xml:space="preserve">
<circle style="fill:#FFD05B;" cx="254" cy="254" r="254"/>
<g>
	<rect x="118.4" y="150.8" style="fill:#FFFFFF;" width="268" height="216.8"/>
	<path style="fill:#FFFFFF;" d="M110,132v244c0,3.2,2.8,6,6,6h276c3.2,0,6-2.8,6-6V132H110z"/>
</g>
<rect x="110" y="132" style="fill:#FF7058;" width="288.4" height="68.4"/>
<g>
	<path style="fill:#324A5E;" d="M171.6,102c-5.6,0-10,4.4-10,10v38c0,5.6,4.4,10,10,10s10.4-4.4,10.4-10v-37.6
		C182,106.8,177.2,102,171.6,102z"/>
	<path style="fill:#324A5E;" d="M336.4,102c-5.6,0-10,4.4-10,10v38c0,5.6,4.4,10,10,10s10-4.4,10-10v-37.6
		C346.4,106.8,342,102,336.4,102z"/>
</g>
<g>
	<rect x="134.4" y="227.2" style="fill:#4CDBC4;" width="30" height="30"/>
	<rect x="186.8" y="227.2" style="fill:#4CDBC4;" width="30" height="30"/>
	<rect x="239.2" y="227.2" style="fill:#4CDBC4;" width="30" height="30"/>
	<rect x="134.4" y="277.2" style="fill:#4CDBC4;" width="30" height="30"/>
	<rect x="186.8" y="277.2" style="fill:#4CDBC4;" width="30" height="30"/>
	<rect x="239.2" y="277.2" style="fill:#4CDBC4;" width="30" height="30"/>
</g>
<rect x="291.6" y="277.2" style="fill:#FF7058;" width="30" height="30"/>
<g>
	<rect x="343.6" y="277.2" style="fill:#4CDBC4;" width="30" height="30"/>
	<rect x="239.2" y="326.8" style="fill:#4CDBC4;" width="30" height="30"/>
	<rect x="291.6" y="326.8" style="fill:#4CDBC4;" width="30" height="30"/>
	<rect x="343.6" y="326.8" style="fill:#4CDBC4;" width="30" height="30"/>
</g>
<g>
</g>
<g>
</g>
<g>
</g>
<g>
</g>
<g>
</g>
<g>
</g>
<g>
</g>
<g>
</g>
<g>
</g>
<g>
</g>
<g>
</g>
<g>
</g>
<g>
</g>
<g>
</g>
<g>
</g>
</svg>
