<?xml version="1.0" standalone="no"?><!-- Generator: Gravit.io --><svg xmlns="http://www.w3.org/2000/svg" xmlns:xlink="http://www.w3.org/1999/xlink" style="isolation:isolate" viewBox="709.61832802432 467.1070919282725 104.49221303884792 70.14098709764863" width="104.49221303884792" height="70.14098709764863"><path d=" M 762.1667801525758 467.11452053267556 L 762.1667801525758 467.11452053267556 C 769.2220345675004 467.11452053267556 776.4264985036665 467.274449783386 783.4817529185908 467.11452053267556 C 789.190980389261 466.9545912819649 793.0924167130971 469.36868123479553 795.1907737697176 475.1614870421108 C 795.7954649873815 477.09073884541897 796.8446435156917 478.86174486381356 797.4461934802767 480.7926801329188 C 798.796932304149 486.90871137324905 802.2523106907996 488.99957589306473 807.9568262818515 488.19487924212115 C 810.505953155276 487.87333727490307 813.9613315419264 486.90871137324905 814.110541063168 492.0584332461283 C 814.110541063168 496.4017750022671 812.4598125702727 497.5280136204286 808.8552246623805 497.3664009039212 C 805.5553383031294 497.04485893670324 805.9998256137759 499.78049085675184 805.9998256137759 502.03128462727807 C 805.8553279721522 511.6876444386005 805.6998359447531 521.344004249923 805.9998256137759 530.9969971296517 C 806.1553176411752 535.6635643188055 804.6506574164429 537.4328868714031 800.3015925288815 537.111344904185 C 798.1953823395642 536.7898029369669 796.0970252829437 536.7898029369669 793.9923857201658 537.111344904185 C 788.1355193547932 537.754428838621 784.5356433265193 536.3083317190385 785.73717262915 528.9078160756329 C 786.1863718194146 526.1688172239903 784.6864234743003 525.3641205730469 782.2802236159602 525.3641205730469 C 768.6220552294545 525.5257332895544 755.1068138580332 525.5257332895544 741.4470748449886 525.3641205730469 C 737.9995495910351 525.3641205730469 737.6932774158546 527.4566685586594 737.8424869370964 530.1923004787081 C 738.4424662751422 535.182093100877 736.9440885565674 537.2729576206925 731.9871911982635 537.111344904185 C 715.1736340941303 536.6298736862564 718.0306037692745 539.2038928897977 717.7290434737123 522.1487009008666 C 717.7290434737123 515.3895857261002 717.7290434737123 508.63047055133393 717.8782529949539 501.7097426600599 C 717.8782529949539 498.8158649550977 717.2782736569085 496.8832462201957 713.9736754180391 497.3664009039212 C 710.2245898685234 497.69130980273314 709.7691081721013 495.113923667598 709.61832802432 491.89682052962087 C 709.61832802432 488.19487924212115 711.8737477348792 487.5501118418881 714.2736650870617 488.19487924212115 C 721.9336107196501 489.9625183289219 724.9319367833388 485.297634605565 727.3349953886005 478.38027364588504 C 730.9364420434136 467.920900649416 732.5871705363089 467.11452053267556 743.2485834856649 467.11452053267556 C 749.5530784147626 467.11452053267556 755.8638558500178 467.11452053267556 762.1667801525758 467.11452053267556 L 762.1667801525758 467.11452053267556 Z " fill-rule="evenodd" fill="rgb(39,68,116)" fill-opacity="0.98" stroke-width="1" stroke="rgba(0,0,0,0)" stroke-linejoin="miter" stroke-linecap="square"/><path d=" M 760.8191825817822 493.25468268654686 L 760.8191825817822 493.25468268654686 C 771.32196225066 493.25468268654686 781.832595052235 493.0947534358364 792.4924373750513 493.25468268654686 C 796.8462141422309 493.25468268654686 798.6524346625253 492.1301275341823 796.2462348041853 487.301947628521 C 794.4462967900482 483.4367101587169 792.9432071918553 479.4149103697961 791.4416882202016 475.3931105808755 C 789.6417502060646 470.8864726424322 786.6371416362182 468.95722083912403 781.988087079634 469.1171500898346 C 771.32196225066 469.278762806342 760.5129104066015 469.1171500898346 749.8577799634032 469.1171500898346 C 729.5888444726198 469.278762806342 733.9441918663387 466.70306013700383 725.5334867479238 486.657180228288 C 725.384277226682 486.97872219550595 725.2334970789008 487.4601934134346 725.0842875576592 487.78341884644954 C 722.9843598744993 491.96851481767476 724.6350883673946 493.25468268654686 728.5380953177702 493.25468268654686 C 739.3487177883679 493.25468268654686 750.0085601111842 493.25468268654686 760.8191825817822 493.25468268654686 L 760.8191825817822 493.25468268654686 Z " fill-rule="evenodd" fill="rgb(255,255,255)" stroke-width="1" stroke="rgba(0,0,0,0)" stroke-linejoin="miter" stroke-linecap="square"/><path d=" M 725.6842668957048 498.24447530871555 L 725.6842668957048 498.24447530871555 L 742.648604147619 498.24447530871555 C 743.4040755130642 498.24447530871555 744.1516937458119 498.8875592431517 744.1516937458119 499.6905724282983 L 744.1516937458119 504.5187523339596 C 744.1516937458119 505.1635197341926 743.4040755130642 505.8049202028317 742.648604147619 505.8049202028317 L 725.6842668957048 505.8049202028317 C 724.9350780364176 505.8049202028317 724.3335280718323 505.1635197341926 724.3335280718323 504.5187523339596 L 724.3335280718323 499.6905724282983 C 724.3335280718323 498.8875592431517 724.9350780364176 498.24447530871555 725.6842668957048 498.24447530871555 L 725.6842668957048 498.24447530871555 Z " fill-rule="evenodd" fill="rgb(255,153,0)" stroke-width="1" stroke="rgba(0,0,0,0)" stroke-linejoin="miter" stroke-linecap="square"/><path d=" M 779.7326673690751 498.24447530871555 L 779.7326673690751 498.24447530871555 L 796.6970046209891 498.24447530871555 C 797.5969736280575 498.24447530871555 798.1969529661031 498.8875592431517 798.1969529661031 499.6905724282983 L 798.1969529661031 504.5187523339596 C 798.1969529661031 505.1635197341926 797.5969736280575 505.8049202028317 796.6970046209891 505.8049202028317 L 779.7326673690751 505.8049202028317 C 778.9803372567088 505.8049202028317 778.3819285452026 505.1635197341926 778.3819285452026 504.5187523339596 L 778.3819285452026 499.6905724282983 C 778.3819285452026 498.8875592431517 778.9803372567088 498.24447530871555 779.7326673690751 498.24447530871555 L 779.7326673690751 498.24447530871555 Z " fill-rule="evenodd" fill="rgb(255,153,0)" stroke-width="1" stroke="rgba(0,0,0,0)" stroke-linejoin="miter" stroke-linecap="square"/></svg>