<?xml version="1.0" standalone="no"?><!-- Generator: Gravit.io --><svg xmlns="http://www.w3.org/2000/svg" xmlns:xlink="http://www.w3.org/1999/xlink" style="isolation:isolate" viewBox="835.9946975252257 463.03743843720275 123.00080102798006 77.34460844571419" width="123.00080102798006" height="77.34460844571419"><path d=" M 938.0726387016963 463.03743843720275 C 936.7863641918923 463.03743843720275 935.6809720350296 464.1603472532209 935.6809720350296 465.4236196712413 L 935.6809720350296 468.43141114271845 C 935.6809720350296 469.714735503882 936.8064622311081 470.817592376757 938.0726387016963 470.817592376757 L 939.6601828193433 470.817592376757 L 910.3373445840492 500.2738968540898 L 909.7141043879708 498.0280792220535 C 909.0910651722845 495.9426771351627 907.4631239958139 493.4161322991219 903.0214573291472 493.8973789345582 L 885.797437721304 494.6994566602855 L 874.1204769369904 483.8513554198246 C 872.6935161526767 482.42766745665875 870.1410651722845 480.683148403202 866.4631239958139 481.6055377877883 L 835.9946975252257 489.766678647063 L 835.9946975252257 495.1807032957218 L 836.1554818389511 495.1807032957218 L 848.596168113461 491.83202879081057 L 851.9525406624806 503.7629349610033 L 835.9946975252257 508.054050793644 L 835.9946975252257 533.359402520907 C 837.7432269369904 537.3298877826882 842.2250896820884 539.415289869579 846.3652857605198 538.2925815729923 C 850.8270504664022 537.0092572118288 853.5402857605197 532.7179408597566 852.756462231108 528.1059939368249 L 883.5466583095395 519.8447938812658 C 884.9736190938531 524.1355086750436 889.7770504664021 526.6825064930905 894.2388151722845 525.4190335556387 C 898.7005798781669 524.1357091944751 901.4138151722846 519.8447938812658 900.6299916428727 515.2328469583342 L 909.4128347801277 512.8466657242957 C 911.503030858559 512.2250554868571 913.0907759565982 510.76126363740485 912.4275406624806 508.23471880136407 L 911.6236190938531 505.2269273298869 L 946.2324426232649 470.71733266104104 L 951.1765602703238 470.71733266104104 L 951.1765602703238 491.4109379848038 L 958.9946975252257 491.4109379848038 L 958.9946975252257 463.03743843720275 L 938.0726387016963 463.03743843720275 Z " fill="rgb(39,68,116)" stroke-width="0.8366013071895426" stroke="rgba(0,0,0,0)" stroke-linejoin="miter" stroke-linecap="butt"/><path d=" M 845.2397955644414 534.482712375788 C 842.6873445840492 535.2847901015152 839.9741092899316 533.6806346500607 839.3510700742453 531.1338373514453 C 838.728030858559 528.5874410916928 840.1549916428727 526.0406437930774 842.7074426232649 525.4190335556387 C 843.1696975252256 525.0982024653479 843.5113641918923 525.0982024653479 843.8329328193433 525.0982024653479 C 846.0839132115002 524.9375864007709 848.1339132115002 526.3815268265114 848.6363641918923 528.6072925154044 C 849.2393053683629 531.1338373514453 847.7922465448335 533.6806346500607 845.2397955644414 534.482712375788 Z " fill="rgb(255,153,0)" stroke-width="0.8366013071895426" stroke="rgba(0,0,0,0)" stroke-linejoin="miter" stroke-linecap="butt"/><path d=" M 857.2584230154217 503.9474656723257 L 854.0829328193432 491.8561439569875 L 865.5589132115001 488.8483524855104 C 866.1819524271864 488.8483524855104 866.6844034075785 488.8483524855104 867.3074426232648 488.8483524855104 C 868.8951877213041 489.00876803065586 870.3221485056177 489.81084575638306 871.2868543879707 490.75328708411257 L 878.9442073291472 498.2527138196623 L 857.2584230154217 503.9474656723257 Z " fill="rgb(255,255,255)" stroke-width="0.8366013071895426" stroke="rgba(0,0,0,0)" stroke-linejoin="miter" stroke-linecap="butt"/><path d=" M 894.0985294117647 524.1108258081807 C 891.5460784313725 524.7328370844822 888.8328431372549 523.3087480824535 888.2098039215687 520.7623518227009 C 887.5867647058824 518.2159555629484 889.1745098039216 515.669158264333 891.7269607843137 514.8869319623175 C 892.0485294117648 515.0475480268943 892.35 515.0475480268943 892.6916666666667 514.8869319623175 C 894.9426470588236 514.7267169366035 896.9926470588235 516.170256323481 897.4950980392157 518.3960220123741 C 898.0980392156863 520.9229678872778 896.6710784313725 523.4693641470303 894.0985294117647 524.1108258081807 Z " fill="rgb(255,153,0)" stroke-width="0.8366013071895426" stroke="rgba(0,0,0,0)" stroke-linejoin="miter" stroke-linecap="butt"/><path d=" M 930.6162661526766 500.9396742008485 L 930.6162661526766 526.546206114122 C 930.6162661526766 528.9319863092977 931.2395063487551 530.8369209078999 935.078030858559 530.8369209078999 L 940.5045014467943 530.8369209078999 C 940.8262710546373 536.0907305308448 945.3079328193433 540.3820468829169 950.7143053683628 540.3820468829169 C 954.231462231108 540.3820468829169 957.2664671330688 538.6373273100287 958.9946975252257 535.9303149856993 L 958.9946975252257 496.8089739133532 C 959.1554818389511 496.6485583682078 935.0579328193433 496.6485583682078 935.0579328193433 496.6485583682078 C 931.0986190938531 496.6485583682078 930.6162661526766 498.39307742166454 930.6162661526766 500.9396742008485 Z " fill="rgb(39,68,116)" stroke-width="0.8366013071895426" stroke="rgba(0,0,0,0)" stroke-linejoin="miter" stroke-linecap="butt"/><path d=" M 950.714305368363 524.5007073940861 C 953.7290112507159 524.5007073940861 956.1407759565982 526.8868886281247 956.1407759565982 529.914732042745 C 956.1407759565982 532.9225235142221 953.7493102703237 535.4893727559808 950.714305368363 535.4893727559808 C 947.6795014467942 535.4893727559808 945.1270504664021 532.9425754573654 945.1270504664021 529.914732042745 C 945.3079328193433 527.0475046927015 947.6995994860099 524.5007073940861 950.714305368363 524.5007073940861 Z " fill="rgb(255,153,0)" stroke-width="0.8366013071895426" stroke="rgba(0,0,0,0)" stroke-linejoin="miter" stroke-linecap="butt"/></svg>