<?xml version="1.0" standalone="no"?><!-- Generator: Gravit.io --><svg xmlns="http://www.w3.org/2000/svg" xmlns:xlink="http://www.w3.org/1999/xlink" style="isolation:isolate" viewBox="634 538.0000000000001 104.49221303884792 71.75355960507147" width="104.49221303884792" height="71.75355960507147"><path d=" M 686.5484521282558 538.0074286044032 L 686.5484521282558 538.0074286044032 C 693.6037065431804 538.0074286044032 700.8081704793465 538.1673578551137 707.8634248942708 538.0074286044032 C 713.572652364941 537.8474993536926 717.4740886887771 540.2615893065232 719.5724457453975 546.0543951138385 C 720.1771369630615 547.9836469171466 721.2263154913717 549.7546529355412 721.8278654559567 551.6855882046465 C 723.178604279829 557.8016194449767 726.6339826664796 559.8924839647924 732.3384982575315 559.0877873138488 C 734.8876251309559 558.7662453466307 738.3430035176063 557.8016194449767 738.4922130388479 562.951341317856 C 738.4922130388479 567.2946830739947 736.8414845459527 568.4209216921563 733.2368966380604 568.2593089756489 C 729.9370102788093 567.9377670084309 730.3814975894559 570.6733989284795 730.3814975894559 572.9241926990057 C 730.2369999478321 582.5805525103282 730.0815079204331 592.2369123216507 730.3814975894559 601.8899052013794 C 730.5369896168552 606.5564723905331 729.0323293921228 608.3257949431307 724.6832645045615 608.0042529759127 C 722.5770543152441 607.6827110086946 720.4786972586237 607.6827110086946 718.3740576958457 608.0042529759127 C 712.5171913304732 608.6473369103487 708.9173153021993 607.2012397907662 710.11884460483 599.8007241473606 C 710.5680437950946 597.061725295718 709.0680954499803 596.2570286447746 706.6618955916401 596.2570286447746 C 693.0037272051345 596.4186413612821 679.4884858337132 596.4186413612821 665.8287468206686 596.2570286447746 C 662.3812215667151 596.2570286447746 662.0749493915346 598.3495766303871 662.2241589127764 601.0852085504358 C 662.8241382508222 606.0750011726046 661.3257605322474 608.1658656924202 656.3688631739435 608.0042529759127 C 639.5553060698103 607.522781757984 642.4122757449545 610.0968009615253 642.1107154493923 593.0416089725943 C 642.1107154493923 586.2824937978279 642.1107154493923 579.5233786230616 642.2599249706338 572.6026507317875 C 642.2599249706338 569.7087730268254 641.6599456325885 567.7761542919234 638.3553473937191 568.2593089756489 C 634.6062618442033 568.5842178744608 634.1507801477812 566.0068317393257 634 562.7897286013485 C 634 559.0877873138488 636.2554197105592 558.4430199136158 638.6553370627416 559.0877873138488 C 646.3152826953301 560.8554264006495 649.3136087590187 556.1905426772927 651.7166673642805 549.2731817176127 C 655.3181140190936 538.8138087211437 656.9688425119889 538.0074286044032 667.6302554613449 538.0074286044032 C 673.9347503904426 538.0074286044032 680.2455278256978 538.0074286044032 686.5484521282558 538.0074286044032 L 686.5484521282558 538.0074286044032 Z " fill-rule="evenodd" fill="rgb(39,68,116)" fill-opacity="0.98" stroke-width="1" stroke="rgba(0,0,0,0)" stroke-linejoin="miter" stroke-linecap="square"/><path d=" M 685.2008545574622 564.1475907582746 L 685.2008545574622 564.1475907582746 C 695.70363422634 564.1475907582746 706.214267027915 563.9876615075642 716.8741093507313 564.1475907582746 C 721.2278861179109 564.1475907582746 723.0341066382052 563.0230356059101 720.6279067798653 558.1948557002488 C 718.8279687657282 554.3296182304447 717.3248791675353 550.3078184415239 715.8233601958816 546.2860186526033 C 714.0234221817445 541.77938071416 711.0188136118982 539.8501289108518 706.369759055314 540.0100581615624 C 695.70363422634 540.1716708780698 684.8945823822814 540.0100581615624 674.2394519390832 540.0100581615624 C 653.9705164482998 540.1716708780698 658.3258638420186 537.5959682087316 649.9151587236038 557.5500883000158 C 649.765949202362 557.8716302672337 649.6151690545807 558.3531014851624 649.4659595333392 558.6763269181773 C 647.3660318501793 562.8614228894025 649.0167603430746 564.1475907582746 652.9197672934501 564.1475907582746 C 663.7303897640479 564.1475907582746 674.3902320868642 564.1475907582746 685.2008545574622 564.1475907582746 L 685.2008545574622 564.1475907582746 Z " fill-rule="evenodd" fill="rgb(255,255,255)" stroke-width="1" stroke="rgba(0,0,0,0)" stroke-linejoin="miter" stroke-linecap="square"/><path d=" M 650.0659388713848 569.1373833804433 L 650.0659388713848 569.1373833804433 L 667.030276123299 569.1373833804433 C 667.7857474887442 569.1373833804433 668.5333657214919 569.7804673148795 668.5333657214919 570.5834805000261 L 668.5333657214919 575.4116604056874 C 668.5333657214919 576.0564278059204 667.7857474887442 576.6978282745595 667.030276123299 576.6978282745595 L 650.0659388713848 576.6978282745595 C 649.3167500120976 576.6978282745595 648.7152000475123 576.0564278059204 648.7152000475123 575.4116604056874 L 648.7152000475123 570.5834805000261 C 648.7152000475123 569.7804673148795 649.3167500120976 569.1373833804433 650.0659388713848 569.1373833804433 L 650.0659388713848 569.1373833804433 Z " fill-rule="evenodd" fill="rgb(255,153,0)" stroke-width="1" stroke="rgba(0,0,0,0)" stroke-linejoin="miter" stroke-linecap="square"/><path d=" M 704.1143393447551 569.1373833804433 L 704.1143393447551 569.1373833804433 L 721.0786765966691 569.1373833804433 C 721.9786456037375 569.1373833804433 722.5786249417831 569.7804673148795 722.5786249417831 570.5834805000261 L 722.5786249417831 575.4116604056874 C 722.5786249417831 576.0564278059204 721.9786456037375 576.6978282745595 721.0786765966691 576.6978282745595 L 704.1143393447551 576.6978282745595 C 703.3620092323888 576.6978282745595 702.7636005208826 576.0564278059204 702.7636005208826 575.4116604056874 L 702.7636005208826 570.5834805000261 C 702.7636005208826 569.7804673148795 703.3620092323888 569.1373833804433 704.1143393447551 569.1373833804433 L 704.1143393447551 569.1373833804433 Z " fill-rule="evenodd" fill="rgb(255,153,0)" stroke-width="1" stroke="rgba(0,0,0,0)" stroke-linejoin="miter" stroke-linecap="square"/><path d=" M 692.0805872001778 587.9068214562146 L 692.0805872001778 606.0196763048763 C 692.0805872001778 607.2031410741305 691.2140445528089 608.0803569906925 690.1361500402281 608.0803569906925 L 683.07699774215 608.0803569906925 C 681.8934272969632 608.0803569906925 681.0163170563337 607.1080327347851 681.0163170563337 606.0196763048763 L 681.0163170563337 587.9068214562146 C 676.144656563199 585.8461407703985 672.7735943130689 580.9638070080705 672.7735943130689 575.3207122069122 C 672.7735943130689 570.7660795115953 674.8342749988851 566.7609616658294 678.1947696557546 564.2564420630681 C 678.1947696557546 564.2564420630681 678.1947696557546 574.8874408832278 678.3004455883606 574.8874408832278 L 685.1376784279662 581.724779398766 C 685.8985451427292 582.4855404375963 687.1983591137824 582.4855404375963 687.9592258285454 581.724779398766 L 694.7963529922184 574.8874408832278 L 694.7963529922184 564.2670096563287 C 698.1674152423485 566.8772051916959 700.3233099434427 570.7766471048559 700.3233099434427 575.3312798001728 C 700.3233099434427 580.9850478705242 696.9733828798338 585.7510324310531 692.0805872001778 587.9068214562146 Z " fill="rgb(255,153,0)" stroke-width="0.8366013071895426" stroke="rgb(255,255,255)" stroke-linejoin="miter" stroke-linecap="butt"/></svg>