<?xml version="1.0" encoding="utf-8"?><svg xmlns="http://www.w3.org/2000/svg" xmlns:xlink="http://www.w3.org/1999/xlink" version="1.1" class="page" pageAlignment="none" x="0px" y="0px" width="740px" height="416px" viewBox="0 0 740 416" enable-background="new 0 0 740 416" xml:space="preserve"><defs/><style type="text/css"/><style type="text/css"/><g type="LAYER" name="workspace" id="workspace" locked="true"/><path width="512" height="512" stroke-miterlimit="3" stroke="none" fill="#FD8469" d="M0,256 C0,114.6150912 114.6150912,0 256,0 C397.3849088,0 512,114.6150912 512,256 C512,397.3849088 397.3849088,512 256,512 C114.6150912,512 0,397.3849088 0,256 Z "/><path transform="matrix(1 0 0 1 117.226 209.23)" width="277.549" height="173.459" stroke-miterlimit="3" stroke="none" fill="#324A5E" d="M0,0 L277.549,0 L277.549,173.459 L0,173.459 L0,0 Z "/><path transform="matrix(1 0 0 1 256.293 209.23)" width="138.481" height="173.459" stroke-miterlimit="3" stroke="none" fill="#324A5E" d="M0,0 L138.481,0 L138.481,173.459 L0,173.459 L0,0 Z "/><path width="277.548" height="208.16199999999998" stroke-miterlimit="3" stroke="none" fill="#31BAFD" d="M117.226,209.239 L256,313.32 L394.774,209.239 L256,105.158 Z "/><path width="138.486" height="207.73" stroke-miterlimit="3" stroke="none" fill="#31BAFD" d="M256.288,105.374 L256.288,313.104 L394.774,209.239 Z "/><path width="208.162" height="173.468" stroke-miterlimit="3" stroke="none" fill="#FFFFFF" d="M151.919,139.852 L151.919,235.26 L256,313.32 L360.081,235.26 L360.081,139.852 Z "/><path width="103.793" height="173.25199999999998" stroke-miterlimit="3" stroke="none" fill="#FFFFFF" d="M360.081,139.852 L256.288,139.852 L256.288,313.104 L360.081,235.26 Z "/><g><path transform="matrix(1 0 0 1 181.872 181.441)" width="148.256" height="6.896" stroke-miterlimit="3" stroke="none" fill="#FD8469" d="M0,0 L148.256,0 L148.256,6.896 L0,6.896 L0,0 Z "/><path transform="matrix(1 0 0 1 181.872 199.111)" width="148.256" height="6.896" stroke-miterlimit="3" stroke="none" fill="#FD8469" d="M0,0 L148.256,0 L148.256,6.896 L0,6.896 L0,0 Z "/></g><g><path transform="matrix(1 0 0 1 256.293 181.441)" width="73.84" height="6.896" stroke-miterlimit="3" stroke="none" fill="#FC6F58" d="M0,0 L73.84,0 L73.84,6.896 L0,6.896 L0,0 Z "/><path transform="matrix(1 0 0 1 256.293 199.111)" width="73.84" height="6.896" stroke-miterlimit="3" stroke="none" fill="#FC6F58" d="M0,0 L73.84,0 L73.84,6.896 L0,6.896 L0,0 Z "/></g><g/><g/><g/><g/><g/><g/><g/><g/><g/><g/><g/><g/><g/><g/><g/></svg>