<?xml version="1.0" standalone="no"?><!-- Generator: Gravit.io --><svg xmlns="http://www.w3.org/2000/svg" xmlns:xlink="http://www.w3.org/1999/xlink" style="isolation:isolate" viewBox="984.9999999999999 460.236887335478 88.00000000000011 81.03880284212852" width="88.00000000000011" height="81.03880284212852"><path d=" M 1069.9629229163788 541.2756901776065 L 1063.2249267636448 541.2756901776065 L 1063.2249267636448 528.8253846493542 L 994.6157511598378 528.8253846493542 L 994.6157511598378 541.2756901776064 L 987.9330751725614 541.2756901776064 L 987.9330751725614 495.7012636165713 C 987.9330751725614 493.9027421256343 989.4289324465345 492.4239577886416 991.269987552963 492.4239577886416 C 993.1375963388111 492.4239577886416 994.610219143292 493.9038223187219 994.610219143292 495.7012636165713 L 994.610219143292 522.6499207672599 L 1069.9618165130696 522.6499207672599 L 1069.9618165130696 541.2756901776065 L 1069.9629229163788 541.2756901776065 Z " fill="rgb(39,68,116)" stroke-width="4.828002414001208" stroke="rgba(0,0,0,0)" stroke-linejoin="miter" stroke-linecap="butt"/><path d=" M 1001.8682248513272 518.5978286718553 C 1000.2075134842905 518.5978286718553 998.8742974967627 517.3005167735878 998.8742974967627 515.6899488799019 C 998.8742974967627 514.0901829170924 1000.2064070809813 512.7701869639843 1001.8682248513272 512.7701869639843 L 1014.3119428693566 512.7701869639843 L 1014.3119428693566 504.0000992853551 C 1014.3119428693566 502.4111352534221 1015.649584470121 501.1019412311905 1017.2859549643564 501.1019412311905 C 1017.3755736323977 501.1019412311905 1017.4485962508018 501.1473093408718 1017.5559173717894 501.16891320262476 L 1065.1157700189851 505.78889903850325 C 1067.6936897293085 506.10755599935993 1069.9175603807034 507.88123304928104 1069.9396884468865 510.46397472185186 L 1069.9629229163788 518.5967484787676 L 1001.8682248513272 518.5967484787676 L 1001.8682248513272 518.5978286718553 Z " fill="rgb(39,68,116)" stroke-width="4.828002414001208" stroke="rgba(0,0,0,0)" stroke-linejoin="miter" stroke-linecap="butt"/><path d=" M 998.8444246074156 502.91587324898467 C 998.8444246074156 499.660171282808 1001.5484742949824 497.0234199558547 1004.9064083382578 497.0234199558547 C 1008.2444271219687 497.0234199558547 1010.9473704062262 499.66017128280805 1010.9473704062262 502.91587324898467 C 1010.9473704062262 506.194259270002 1008.2433207186594 508.83425117621823 1004.9064083382578 508.83425117621823 C 1001.5484742949824 508.83425117621823 998.8444246074156 506.194259270002 998.8444246074156 502.91587324898467 Z " fill="rgb(255,153,0)" stroke-width="4.828002414001208" stroke="rgba(0,0,0,0)" stroke-linejoin="miter" stroke-linecap="butt"/><path d=" M 1069.338911450017 488.81447566234266 L 1028.9994467983454 469.23705614177663 L 988.661088549983 488.81447566234266 L 984.9999999999999 481.61822931241926 L 1028.9430202295787 460.2962979552987 L 1028.9596162792159 460.236887335478 L 1028.9994467983454 460.26497235575687 L 1029.0403837207841 460.24228830091624 L 1029.0580861737305 460.30169892073695 L 1073 481.6268708571205 L 1069.338911450017 488.81447566234266 Z " fill="rgb(39,68,116)" stroke-width="4.828002414001208" stroke="rgba(0,0,0,0)" stroke-linejoin="miter" stroke-linecap="butt"/></svg>