<?xml version="1.0" standalone="no"?><!-- Generator: Gravit.io --><svg xmlns="http://www.w3.org/2000/svg" xmlns:xlink="http://www.w3.org/1999/xlink" style="isolation:isolate" viewBox="729.6915627053284 49.10004444013784 68.50539026077467 57.47981535693129" width="68.50539026077467" height="57.47981535693129"><path d=" M 773.5689860306735 62.886618965564395 L 773.5689860306735 62.886618965564395 L 773.5689860306735 51.20868540533442 C 773.5689860306735 50.29731607052858 772.8360733090705 49.5691749161235 772.0153637510253 49.5691749161235 L 765.9039404839083 49.5691749161235 C 765.0832309258632 49.5691749161235 764.2625213678181 50.29731607052858 764.2625213678181 51.20868540533442 L 764.2625213678181 56.22741978412412 C 761.8939154107624 54.03727044027127 759.5214921999484 51.93968950005839 757.1481146756947 49.75144878308467 C 756.3274051176496 48.928830598160374 755.7786748898869 48.83817082139964 754.867305555081 49.75144878308467 C 747.0228490816734 56.68358160824684 739.1793469217052 63.61571443340901 731.3358447617372 70.54880157201083 C 730.7852059070954 71.00400908269395 730.2383843062119 71.46017090681673 729.6915627053284 72.00699250770023 L 733.7044507187929 72.00699250770023 L 733.7044507187929 73.74098002743031 C 733.7044507187929 74.01486798459197 733.7044507187929 74.28875594175346 733.7044507187929 74.65234936223621 C 733.7044507187929 81.7667560543596 733.7044507187929 88.88211705992254 733.7044507187929 96.0900464691255 C 733.7044507187929 97.09398420757137 733.9783386759545 97.36691785129332 734.9813221009608 97.27530376109294 C 739.0886871449445 97.27530376109294 743.19223493517 97.27530376109294 747.3873968155957 97.27530376109294 C 748.3932431809208 97.27530376109294 748.5755170478819 97.00237011737093 748.5755170478819 96.0900464691255 C 748.5755170478819 92.53045733946485 748.5755170478819 88.88211705992254 748.5755170478819 85.32443655714113 C 748.663313884324 83.22876424380732 749.7598200264098 82.13225810172153 751.768649816741 82.13225810172153 C 753.6820482631136 82.13225810172153 755.5954467094862 82.13225810172153 757.4210483194166 82.13225810172153 C 760.7057951784761 82.13225810172153 761.7087786034824 83.04458174996702 761.7994383802433 86.05544065186498 C 765.6338697805049 84.59629540273599 767.8211561840392 81.7667560543596 766.2713511581494 75.93017505784357 L 766.1806913813886 75.83951528108284 C 765.9039404839083 74.83557754263697 765.8161436474662 73.83259411763069 765.721666616947 72.82865637918488 C 765.721666616947 70.45718748181045 766.4536250251106 68.35769791471833 767.8211561840392 66.62657333530703 C 769.0961189393278 64.89163150213724 770.9217205492583 63.70732852360939 773.1128242065507 63.068892832525506 C 773.2950980735119 62.97823305576466 773.3857578502727 62.97823305576466 773.5689860306735 62.886618965564395 L 773.5689860306735 62.886618965564395 Z " fill-rule="evenodd" fill="rgb(39,68,116)" stroke-width="1" stroke="rgba(0,0,0,0)" stroke-linejoin="miter" stroke-linecap="square"/><path d=" M 775.7581810610867 77.11638666325072 L 775.7581810610867 77.11638666325072 L 776.7611644860931 77.11638666325072 C 776.7611644860931 77.02477257305029 776.7611644860931 76.93411279628944 776.7611644860931 76.84345301952871 C 776.6695503958927 76.75183892932833 776.7611644860931 76.66117915256754 776.7611644860931 76.56956506236716 C 776.8518242628538 76.56956506236716 776.9434383530543 76.56956506236716 777.0350524432546 76.56956506236716 L 778.6745629324655 76.56956506236716 L 776.9434383530543 78.1184157748173 C 776.8518242628538 78.0277559980565 776.8518242628538 77.84548213109534 776.8518242628538 77.7548223543346 L 775.6646583440072 77.7548223543346 C 775.5768615075651 78.3923037319789 775.3917247002853 79.2139676034636 775.0262226529233 79.48785556062509 C 774.4794010520397 79.7607892043471 773.7503055841951 79.85431192142661 773.4773719404732 79.85431192142661 C 773.1128242065507 79.85431192142661 772.383728738706 79.7607892043471 771.9247039742645 79.48785556062509 C 771.2872225966203 79.02978510962325 771.1039944162195 77.39027462041221 771.1039944162195 76.84345301952871 C 771.1039944162195 76.75183892932833 771.1039944162195 76.66117915256754 771.1956085064198 76.56956506236716 C 771.1956085064198 76.56956506236716 771.2872225966203 76.56956506236716 771.377882373381 76.56956506236716 L 775.482384477046 76.56956506236716 C 775.5768615075651 76.56956506236716 775.6646583440072 76.56956506236716 775.6646583440072 76.56956506236716 C 775.7581810610867 76.66117915256754 775.8469322109684 76.75183892932833 775.8469322109684 76.84345301952871 C 775.8469322109684 76.93411279628944 775.7581810610867 77.02477257305029 775.7581810610867 77.11638666325072 L 775.7581810610867 77.11638666325072 Z " fill-rule="evenodd" fill="rgb(255,153,0)" stroke-width="1" stroke="rgba(0,0,0,0)" stroke-linejoin="miter" stroke-linecap="square"/><path d=" M 781.5947620576028 73.83259411763069 L 781.5947620576028 73.83259411763069 C 781.4124881906416 73.37643229350803 781.2302143236803 72.55476842202333 781.2302143236803 71.91537841749985 C 781.2302143236803 71.91537841749985 776.1236831084486 74.92623731939776 774.2980814985182 74.92623731939776 C 774.2980814985182 74.92623731939776 777.6725338208989 73.28577251674719 778.2193554217824 72.00699250770023 C 776.5788906191318 73.1941584265468 773.0221644297899 74.92623731939776 771.9247039742645 74.83557754263697 C 771.9247039742645 74.83557754263697 773.4773719404732 74.01486798459197 773.7503055841951 73.28577251674719 C 770.0103512144524 74.1055277613527 770.1935793948531 77.11638666325072 770.0103512144524 79.94401738474787 C 770.0103512144524 79.94401738474787 769.2783928062889 76.66117915256754 769.0961189393278 75.93017505784357 C 767.4566084501168 70.731075438972 771.2872225966203 66.53591355854618 776.3966167521706 66.4442994683458 C 780.6833927227968 66.4442994683458 783.3297038907724 68.54092609511909 783.8765254916559 71.64244477377784 L 781.5947620576028 73.83259411763069 Z " fill-rule="evenodd" fill="rgb(39,68,116)" stroke-width="1" stroke="rgba(0,0,0,0)" stroke-linejoin="miter" stroke-linecap="square"/><path d=" M 795.6422558883279 64.16253603429257 L 795.6422558883279 64.16253603429257 L 798.196952966103 66.80884720226814 L 755.5954467094862 106.57985979706913 L 753.13522666223 103.93545725597275 L 795.6422558883279 64.16253603429257 Z " fill-rule="evenodd" fill="rgb(39,68,116)" stroke-width="1" stroke="rgba(0,0,0,0)" stroke-linejoin="miter" stroke-linecap="square"/><path d=" M 769.5551437037693 97.27530376109294 L 776.1236831084486 97.27530376109294 L 776.3059569754099 97.27530376109294 L 791.992961295346 97.27530376109294 C 791.992961295346 87.88008794835591 788.526894882765 89.24666479384487 781.777035924564 85.87316678490376 L 769.5551437037693 97.27530376109294 Z " fill-rule="evenodd" fill="rgb(255,153,0)" stroke-width="1" stroke="rgba(0,0,0,0)" stroke-linejoin="miter" stroke-linecap="square"/></svg>