<?xml version="1.0" standalone="no"?><!-- Generator: Gravit.io --><svg xmlns="http://www.w3.org/2000/svg" xmlns:xlink="http://www.w3.org/1999/xlink" style="isolation:isolate" viewBox="692.2014340763103 50.63482919569757 67.02125634426113 59.72607632280853" width="67.02125634426113" height="59.72607632280853"><path d=" M 741.9433028860022 79.0718546167023 L 741.9433028860022 79.0718546167023 L 741.9433028860022 78.86367735063754 L 741.9433028860022 76.78299234550727 L 747.3597117057499 76.78299234550727 C 744.6504948830124 74.07864566659671 741.5565611721435 71.16938468817409 738.8453195236788 68.46503800926357 L 738.8453195236788 53.078627995371875 C 738.8453195236788 52.03665400953034 738.0698112702347 51.20612025630638 737.1039693984516 51.20612025630638 L 730.7156442297397 51.20612025630638 C 729.7457527065027 51.20612025630638 728.9763189302395 52.03665400953034 728.9763189302395 53.078627995371875 L 728.9763189302395 58.89932526325222 C 726.4614853772947 56.40641881695919 723.9405773471691 53.910249404113415 721.4277686199515 51.41320986685358 C 720.4599019224414 50.3753689719789 719.8727024616088 50.3753689719789 718.912935067007 51.41320986685358 C 710.5848268518208 59.31567979538178 702.2627931138157 67.2159744128748 693.9427842015377 75.11648656147142 C 693.3616592178862 75.53284109360095 692.7825590599617 76.15954820283048 692.2014340763103 76.78299234550727 L 696.4576177544823 76.78299234550727 L 696.4576177544823 78.86367735063754 C 696.4576177544823 79.0718546167023 696.4576177544823 79.48625136890024 696.4576177544823 79.9026059010298 C 696.4576177544823 88.00999012907008 696.4576177544823 96.12063732366306 696.4576177544823 104.2282390828068 C 696.4576177544823 105.47621502367792 696.656050675729 105.68221697870757 697.8162758173049 105.68221697870757 C 702.0704346697498 105.68221697870757 706.5250512691688 105.68221697870757 710.9735933914066 105.68221697870757 C 711.9374104374625 105.68221697870757 712.326176977048 105.26803775761317 712.326176977048 104.2282390828068 C 712.1378681844363 100.2780917740603 712.326176977048 96.12063732366306 712.326176977048 91.96231274885173 C 712.326176977048 89.67345047765667 713.492476595805 88.42634466119961 715.618543609164 88.21816739513486 C 717.5542770041842 88.21816739513486 719.6884433204513 88.21816739513486 721.6201270640173 88.21816739513486 C 725.2931609328108 88.21816739513486 726.2610276303209 89.46527321159189 726.2610276303209 93.41955361130522 C 726.2610276303209 97.15847821853774 726.2610276303209 100.69749174163908 726.2610276303209 104.4364163488716 C 726.2610276303209 105.26803775761317 726.4614853772947 105.68221697870757 727.4273272490778 105.68221697870757 C 731.6814861015229 105.68221697870757 736.1361027009415 105.68221697870757 740.3963360305676 105.68221697870757 C 741.5565611721435 105.68221697870757 741.9433028860022 105.47621502367792 741.9433028860022 104.64459361493638 L 741.9433028860022 99.23916322366802 C 741.9433028860022 92.58466923601094 741.9433028860022 85.72634860435937 741.9433028860022 79.0718546167023 L 741.9433028860022 79.0718546167023 Z " fill-rule="evenodd" fill="rgb(39,68,116)" stroke-width="1" stroke="rgba(0,0,0,0)" stroke-linejoin="miter" stroke-linecap="square"/><path d=" M 752.116276688278 84.62483603817951 C 748.3782132043672 79.74621129461676 744.8300189543857 76.45155562363932 744.513328667259 69.98896180749126 C 744.513328667259 69.79888551878102 744.4499699043556 69.6721679929742 744.3232523785488 69.54545046716737 C 744.2598936156453 69.22865665265032 743.9430998011283 69.03858036394008 743.6263059866112 69.22865665265032 C 743.2461534091907 69.22865665265032 742.929463122064 69.48209170426396 742.929463122064 69.92560304458785 C 734.9462589962341 78.54239479945193 721.4508424978072 100.40116800112916 738.4309909559217 106.67358200117661 C 746.0974012672347 109.52482985922055 754.7775517850022 105.65994532211238 756.298162094684 97.2964850914716 C 757.121722485038 92.79811645271968 754.7773447302214 88.04631276235413 752.116276688278 84.62483603817951 Z " fill="rgb(119,164,238)" stroke-width="1.3785341766085366" stroke="rgb(255,255,255)" stroke-linejoin="miter" stroke-linecap="butt"/><path d=" M 738.4942461914349 102.6187247027486 C 736.6568420672359 101.54162573339059 735.5163843349744 99.38753132206493 734.9461554688437 97.48666490757219 C 734.69272041723 96.53628346402101 734.5660028914233 95.5860055478602 734.6293616543267 94.63562410430902 C 735.0095142317472 92.98829626882029 735.5163843349744 91.40422366884462 736.0866132011051 89.82035812364967 C 736.4034070156222 91.21414738013438 737.0369946446564 92.60814369139982 737.9240173253041 93.62178037046405 C 739.9514977382133 95.83954412686421 744.0698173269351 97.1699746204455 745.2102750591965 99.95776018819565 C 745.9072214511341 101.66834325919741 743.1827946462873 103.12569833336627 742.0423369140259 103.50574738339637 C 740.8385204188611 103.88589996081684 739.5078828704991 103.25241585917308 738.4942461914349 102.6187247027486 Z " fill="rgb(255,255,255)" stroke-width="1.3785341766085366" stroke="rgb(255,255,255)" stroke-linejoin="miter" stroke-linecap="butt"/></svg>