<?xml version="1.0" standalone="no"?><!-- Generator: Gravit.io --><svg xmlns="http://www.w3.org/2000/svg" xmlns:xlink="http://www.w3.org/1999/xlink" style="isolation:isolate" width="1000" height="1000"><g transform="translate(0,0)"><circle vector-effect="non-scaling-stroke" cx="0" cy="0" r="1" fill="rgb(255,208,91)" transform="matrix(500,0,0,500,500,500)" stroke-width="1.9685039370078743" stroke="rgba(0,0,0,0)"/><path d=" M 89.71180255190319 562.2265625 Q 110.33680255190319 562.2265625 110.33680255190319 528.59375 L 110.33680255190319 411.2890625 Q 110.33680255190319 408.2421875 112.09461505190319 406.015625 Q 113.85242755190319 403.7890625 116.54774005190319 403.7890625 L 133.4227400519032 403.7890625 Q 136.0008650519032 403.7890625 137.7586775519032 406.015625 Q 139.5164900519032 408.2421875 139.5164900519032 411.2890625 L 139.5164900519032 535.0390625 Q 139.5164900519032 561.0546875 126.74305255190319 574.4140625 Q 115.25867755190319 586.484375 95.21961505190319 586.484375 Q 82.68055255190319 586.484375 76.23524005190319 583.84765625 Q 69.78992755190319 581.2109375 67.38758380190319 578.80859375 Q 64.98524005190319 576.40625 64.98524005190319 573.88671875 Q 64.98524005190319 571.3671875 65.57117755190319 569.4921875 L 66.62586505190319 565.9765625 Q 68.96961505190319 558.359375 72.71961505190319 558.359375 Q 73.77430255190319 558.359375 75.29774005190319 558.9453125 L 78.93055255190319 560.234375 Q 84.32117755190319 562.2265625 89.71180255190319 562.2265625 Z  M 444.7899275519032 577.578125 Q 444.7899275519032 583.4375 440.6883650519032 583.4375 L 421.2352400519032 583.4375 Q 419.0086775519032 583.4375 417.3680525519032 582.03125 Q 415.7274275519032 580.625 415.4930525519032 578.515625 L 407.4071150519032 508.4375 Q 405.8836775519032 495.1953125 405.1219588019032 482.3046875 Q 404.3602400519032 469.4140625 403.4227400519032 455.3515625 L 402.2508650519032 438.7109375 Q 402.2508650519032 438.2421875 401.9578963019032 438.2421875 Q 401.6649275519032 438.2421875 401.5477400519032 438.59375 L 396.2743025519032 457.8125 Q 394.6336775519032 463.671875 392.6414900519032 469.53125 L 356.0789900519032 569.0234375 Q 355.4930525519032 570.78125 353.7352400519032 572.3046875 Q 351.9774275519032 573.828125 350.2196150519032 573.828125 L 331.8211775519032 573.828125 Q 328.1883650519032 573.828125 325.9618025519032 569.140625 Q 285.2977400519032 473.8671875 282.6610213019032 467.24609375 Q 280.0243025519032 460.625 278.0321150519032 454.6484375 L 272.7586775519032 438.4765625 Q 272.6414900519032 438.125 272.3485213019032 438.125 Q 272.0555525519032 438.125 271.9383650519032 438.59375 L 271.9383650519032 457.578125 Q 271.9383650519032 482.421875 269.9461775519032 508.3203125 L 264.6727400519032 578.515625 Q 264.4383650519032 580.390625 262.5047713019032 581.9140625 Q 260.5711775519032 583.4375 258.4618025519032 583.4375 L 242.2899275519032 583.4375 Q 239.4774275519032 583.4375 237.6610213019032 580.9765625 Q 235.8446150519032 578.515625 236.1961775519032 575 L 250.2586775519032 420.78125 Q 251.0789900519032 411.0546875 252.6024275519032 408.4765625 Q 255.2977400519032 403.7890625 262.4461775519032 403.7890625 L 275.1024275519032 403.7890625 Q 280.8446150519032 403.7890625 283.0711775519032 405.3125 Q 287.1727400519032 408.0078125 290.2196150519032 415.5078125 L 340.7274275519032 538.5546875 L 384.9071150519032 415.390625 Q 388.7743025519032 403.7890625 398.0321150519032 403.7890625 L 411.2743025519032 403.7890625 Q 421.5868025519032 403.7890625 423.3446150519032 413.28125 Q 423.8133650519032 416.328125 424.2821150519032 419.84375 L 444.5555525519032 575.1171875 Q 444.7899275519032 576.2890625 444.7899275519032 577.578125 Z  M 548.0321150519032 413.8671875 Q 548.0321150519032 406.953125 552.9539900519032 404.609375 Q 554.5946150519032 403.7890625 557.0555525519032 403.7890625 L 611.5477400519032 403.7890625 Q 634.5164900519032 403.7890625 650.6883650519032 413.515625 Q 670.3758650519032 425.1171875 670.3758650519032 449.0234375 Q 670.3758650519032 465.3125 661.0008650519032 476.2109375 Q 652.5633650519032 485.8203125 639.4383650519032 488.3984375 L 639.4383650519032 488.8671875 Q 657.3680525519032 489.6875 669.2039900519032 499.296875 Q 682.6805525519032 510.546875 682.6805525519032 529.53125 Q 682.6805525519032 557.1875 662.4071150519032 571.1328125 Q 644.7118025519032 583.4375 614.3602400519032 583.4375 L 557.0555525519032 583.4375 Q 552.2508650519032 583.4375 550.1414900519032 580.44921875 Q 548.0321150519032 577.4609375 548.0321150519032 573.359375 L 548.0321150519032 413.8671875 Z  M 577.0946150519032 480.1953125 Q 594.9071150519032 480.1953125 605.5711775519032 479.4921875 Q 623.6180525519032 478.4375 632.0555525519032 471.46484375 Q 640.4930525519032 464.4921875 640.4930525519032 451.953125 Q 640.4930525519032 439.4140625 631.5282088019032 433.96484375 Q 622.5633650519032 428.515625 604.7508650519032 428.515625 L 577.0946150519032 428.515625 L 577.0946150519032 480.1953125 Z  M 614.1258650519032 558.4765625 Q 639.9071150519032 558.4765625 648.3446150519032 543.828125 Q 651.5086775519032 538.4375 651.5086775519032 531.171875 Q 651.5086775519032 523.90625 649.5164900519032 519.5703125 Q 647.5243025519032 515.234375 644.1258650519032 512.1875 Q 640.7274275519032 509.140625 636.1571150519032 507.32421875 Q 631.5868025519032 505.5078125 626.5477400519032 504.453125 Q 617.7586775519032 502.8125 608.9696150519032 502.8125 Q 597.9539900519032 502.8125 585.6493025519032 503.3984375 L 577.0946150519032 503.75 L 577.2118025519032 558.4765625 L 614.1258650519032 558.4765625 Z  M 797.2313338019032 561.2890625 Q 797.2313338019032 561.2890625 791.9285994269032 555.1953125 Q 786.6258650519032 549.1015625 780.7078963019032 531.5234375 Q 774.7899275519032 513.9453125 774.7899275519032 492.265625 Q 774.7899275519032 470.5859375 780.9422713019032 453.7109375 Q 787.0946150519032 436.8359375 798.1102400519032 425.1171875 Q 821.0789900519032 400.859375 859.0477400519032 400.859375 Q 889.8680525519032 400.859375 908.0321150519032 415.390625 Q 915.7664900519032 421.71875 919.4578963019032 428.984375 Q 923.1493025519032 436.25 923.1493025519032 440.17578125 Q 923.1493025519032 444.1015625 922.9735213019032 446.4453125 Q 922.7977400519032 448.7890625 921.6258650519032 451.015625 Q 918.6961775519032 456.2890625 910.6102400519032 456.2890625 L 900.5321150519032 456.2890625 Q 897.0164900519032 456.2890625 895.9618025519032 454.296875 Q 894.6727400519032 451.953125 894.2039900519032 448.02734375 Q 893.7352400519032 444.1015625 891.9188338019032 440.46875 Q 890.1024275519032 436.8359375 886.0008650519032 433.671875 Q 876.3914900519032 426.2890625 860.6297713019032 426.2890625 Q 844.8680525519032 426.2890625 835.1414900519032 431.26953125 Q 825.4149275519032 436.25 818.9696150519032 445.0390625 Q 806.3133650519032 462.5 806.3133650519032 491.6796875 Q 806.3133650519032 520.859375 817.7977400519032 539.140625 Q 831.1571150519032 560.1171875 857.0555525519032 560.1171875 Q 885.0633650519032 560.1171875 891.6258650519032 545 Q 893.6180525519032 540.6640625 893.6180525519032 536.50390625 Q 893.6180525519032 532.34375 892.4461775519032 528.2421875 Q 891.2743025519032 524.140625 888.3446150519032 520.390625 Q 881.7821150519032 511.484375 868.7743025519032 508.3203125 Q 865.0243025519032 507.3828125 862.0360213019032 504.74609375 Q 859.0477400519032 502.109375 859.0477400519032 497.3046875 L 859.0477400519032 493.203125 Q 859.0477400519032 490.859375 860.9227400519032 489.16015625 Q 862.7977400519032 487.4609375 865.4930525519032 487.4609375 L 920.3368025519032 487.4609375 Q 926.8993025519032 487.4609375 926.8993025519032 493.203125 L 926.8993025519032 505.9765625 Q 926.8993025519032 508.3203125 924.9657088019032 509.7265625 Q 923.0321150519032 511.1328125 920.3368025519032 511.1328125 L 903.2274275519032 511.1328125 Q 916.2352400519032 516.9921875 920.6883650519032 530.703125 Q 922.3289900519032 535.7421875 922.3289900519032 540.95703125 Q 922.3289900519032 546.171875 920.9227400519032 550.9765625 Q 919.5164900519032 555.78125 916.3524275519032 560.703125 Q 913.1883650519032 565.625 908.0907088019032 570.25390625 Q 902.9930525519032 574.8828125 895.6102400519032 578.515625 Q 879.3211775519032 586.3671875 858.4618025519032 586.3671875 Q 837.6024275519032 586.3671875 822.7196150519032 579.921875 Q 807.8368025519032 573.4765625 797.2313338019032 561.2890625 Z " fill-rule="evenodd" fill="rgb(255,255,255)" stroke-width="1" stroke="rgba(0,0,0,0)" stroke-linejoin="miter" stroke-linecap="square"/></g></svg>