<?xml version="1.0" encoding="iso-8859-1"?>
<!-- Generator: Adobe Illustrator 19.0.0, SVG Export Plug-In . SVG Version: 6.00 Build 0)  -->
<svg version="1.1" id="Layer_1" xmlns="http://www.w3.org/2000/svg" xmlns:xlink="http://www.w3.org/1999/xlink" x="0px" y="0px"
	 viewBox="0 0 504 504" style="enable-background:new 0 0 504 504;" xml:space="preserve">
<circle style="fill:#FD8469;" cx="252" cy="252" r="252"/>
<path style="fill:#FFFFFF;" d="M146.3,436.8c97.8-46.9,206.8-63,304.6-109.9c-15.5-42.8-30.9-85.7-46.4-128.5
	c-97.8,46.9-206.8,63-304.6,109.9C115.3,351.2,130.8,394,146.3,436.8z"/>
<path style="fill:#4CDBC4;" d="M331.6,228c24.8-8.6,49.2-18.2,72.9-29.6c15.5,42.8,30.9,85.7,46.4,128.5
	c-23.8,11.4-48.2,21-72.9,29.6C362.5,313.7,347,270.9,331.6,228z"/>
<g>
	<path style="fill:#ACB3BA;" d="M312.2,264.2c-59,19-119.3,34.7-176.5,58.8c-0.8,0.3-1.7,0-2-0.9c-0.3-0.8,0.1-1.7,0.9-2.1
		c57.2-24.1,117.4-39.8,176.5-58.8c0.8-0.3,1.7,0.2,2,1C313.4,263.1,313,264,312.2,264.2z"/>
	<path style="fill:#ACB3BA;" d="M141.7,339.7c57.2-24.1,117.4-39.8,176.5-58.8c0.8-0.3,1.7,0.2,2,1s-0.1,1.7-1,2
		c-59,19-119.3,34.7-176.5,58.8c-0.8,0.3-1.7,0-2-0.9C140.5,341,140.9,340,141.7,339.7z"/>
	<path style="fill:#ACB3BA;" d="M148.8,359.3c57.2-24.1,117.4-39.8,176.5-58.8c0.8-0.3,1.7,0.2,2,1s-0.1,1.7-1,2
		c-59,19-119.3,34.7-176.5,58.8c-0.8,0.3-1.7,0-2-0.9C147.6,360.6,148,359.6,148.8,359.3z"/>
	<path style="fill:#ACB3BA;" d="M155.9,378.9c57.2-24.1,117.4-39.8,176.5-58.8c0.8-0.3,1.7,0.2,2,1s-0.1,1.7-1,2
		c-59,19-119.3,34.7-176.5,58.8c-0.8,0.3-1.7,0-2-0.9C154.7,380.2,155.1,379.3,155.9,378.9z"/>
	<path style="fill:#ACB3BA;" d="M163,398.5c57.2-24.1,117.4-39.8,176.5-58.8c0.8-0.3,1.7,0.2,2,1s-0.1,1.7-1,2
		c-59,19-119.3,34.7-176.5,58.8c-0.8,0.3-1.7,0-2-0.9C161.8,399.8,162.2,398.9,163,398.5z"/>
</g>
<path style="fill:#FFFFFF;" d="M371.7,291.4c-0.6-1.7-1.2-3.4-1.8-5.1c4-6.3,8-12.7,12-19.2c-5.6-16.5-1.5-19.9-1.5-19.9
	s5.2-0.4,11.4,15.9c7,2,14,4,21,5.9c0.6,1.7,1.2,3.4,1.8,5.1c-5.9,1.5-11.8,2.9-17.8,4.2c1.8,5.9,3.4,11.8,4.7,17
	c4,0.8,7.9,1.6,11.9,2.4c0.6,1.5,1.1,3.1,1.7,4.6c-3.9,0.9-7.8,1.8-11.7,2.6c0.4,2.9,0.3,4.7-0.4,5c-0.7,0.3-1.9-1-3.4-3.4
	c-3.4,2.1-6.9,4.2-10.4,6.3c-0.6-1.5-1.1-3.1-1.7-4.6c2.5-3.3,4.9-6.7,7.4-10.1c-2.3-4.7-4.8-10.2-7.2-15.9
	C382.3,285.2,377,288.3,371.7,291.4z"/>
<polygon style="fill:#84DBFF;" points="191.1,104.9 191.1,67.2 174.8,83.4 159.1,67.7 159.1,106.5 "/>
<path style="fill:#324A5E;" d="M314.2,356.1H117c-1.4,0-2.5-1.1-2.5-2.5V102.7c0-1.4,1.1-2.5,2.5-2.5h197.2c1.4,0,2.5,1.1,2.5,2.5
	v250.8C316.7,355,315.5,356.1,314.2,356.1z"/>
<path style="fill:#2B3B4E;" d="M138.1,100.2h-13.8c-5.4,0-9.9,4.4-9.9,9.9v236.1c0,5.4,4.4,9.9,9.9,9.9h13.8V100.2z"/>
<g>
	<path style="fill:#FFD05B;" d="M225.9,136.6c-23.6,0-42.8,19.2-42.8,42.8s19.2,42.8,42.8,42.8s42.8-19.2,42.8-42.8
		C268.7,155.8,249.5,136.6,225.9,136.6z M264.8,177.5h-17.5c-0.3-15.6-4.6-28.8-11.1-35.7C252.2,146.2,264,160.5,264.8,177.5z
		 M224,140.6v37h-15.9C208.5,158.6,215.5,142.6,224,140.6z M224,181.3v37c-8.5-2.1-15.5-18-15.9-37H224z M227.7,218.2v-37h15.9
		C243.2,200.3,236.3,216.2,227.7,218.2z M227.7,177.5v-37c8.5,2.1,15.5,18,15.9,37H227.7z M215.4,141.8
		c-6.4,6.9-10.7,20.1-11.1,35.7h-17.5C187.7,160.5,199.5,146.2,215.4,141.8z M186.9,181.3h17.5c0.3,15.6,4.6,28.8,11.1,35.7
		C199.5,212.6,187.7,198.4,186.9,181.3z M236.3,217c6.4-6.9,10.7-20.1,11.1-35.7h17.5C264,198.4,252.2,212.6,236.3,217z"/>
	<path style="fill:#FFD05B;" d="M173.4,145.6L173.4,145.6c0.4-8.9,12.3-18.3,22.1-17l0,0l0,0C189.4,136.1,181.4,142.5,173.4,145.6
		L173.4,145.6z"/>
	<path style="fill:#FFD05B;" d="M165.1,160.6L165.1,160.6c-6.2-1.8-8.3-13.4-0.1-23.6l0,0l0,0C169.9,141.4,168.3,151.3,165.1,160.6
		L165.1,160.6z"/>
	<path style="fill:#FFD05B;" d="M165.1,160.6L165.1,160.6c6.3,1.9,13.2-2.5,18.3-8.6l0,0l0,0C178.7,147.5,168.7,150.6,165.1,160.6
		L165.1,160.6z"/>
	<path style="fill:#FFD05B;" d="M161.7,179.8L161.7,179.8c-6.5,0.4-12.3-9.7-8.2-21.8l0,0l0,0C159.6,160.4,161.6,170,161.7,179.8
		L161.7,179.8z"/>
	<path style="fill:#FFD05B;" d="M161.7,179.8L161.7,179.8c6.6-0.3,11.7-6.9,14.2-14.1l0,0l0,0C169.9,163.1,161.8,169.2,161.7,179.8
		L161.7,179.8z"/>
	<path style="fill:#FFD05B;" d="M164.9,198.9L164.9,198.9c-6,2.6-14.8-5.1-15-17.8l0,0l0,0C156.5,181.4,161.5,189.7,164.9,198.9
		L164.9,198.9z"/>
	<path style="fill:#FFD05B;" d="M164.9,198.9L164.9,198.9c6.1-2.6,8.7-10.5,8.7-18.1l0,0l0,0C167.1,180.4,161.4,188.9,164.9,198.9
		L164.9,198.9z"/>
	<path style="fill:#FFD05B;" d="M174.6,216.1L174.6,216.1c-4.7,4.5-15.9,0.2-20.4-11.8l0,0l0,0C160.5,202.3,168,208.4,174.6,216.1
		L174.6,216.1z"/>
	<path style="fill:#FFD05B;" d="M174.6,216.1L174.6,216.1c4.8-4.5,4.3-13,1.8-20.3l0,0l0,0C170.2,197.7,167.6,207.7,174.6,216.1
		L174.6,216.1z"/>
	<path style="fill:#FFD05B;" d="M196.7,228.7c-6.6-1.7-12.6-4.5-17.9-8.2c3.9,5.1,9,9.9,15.5,13.8
		C195.1,232.5,195.9,230.6,196.7,228.7z"/>
	<path style="fill:#FFD05B;" d="M278.4,145.6L278.4,145.6c-0.4-8.9-12.3-18.3-22.1-17l0,0l0,0C262.4,136.1,270.3,142.5,278.4,145.6
		L278.4,145.6z"/>
	<path style="fill:#FFD05B;" d="M286.6,160.6L286.6,160.6c6.2-1.8,8.3-13.4,0.1-23.6l0,0l0,0C281.8,141.4,283.4,151.3,286.6,160.6
		L286.6,160.6z"/>
	<path style="fill:#FFD05B;" d="M286.6,160.6L286.6,160.6c-6.3,1.9-13.2-2.5-18.3-8.6l0,0l0,0C273.1,147.5,283,150.6,286.6,160.6
		L286.6,160.6z"/>
	<path style="fill:#FFD05B;" d="M290,179.8L290,179.8c6.5,0.4,12.3-9.7,8.2-21.8l0,0l0,0C292.1,160.4,290.1,170,290,179.8L290,179.8
		z"/>
	<path style="fill:#FFD05B;" d="M290,179.8L290,179.8c-6.6-0.3-11.7-6.9-14.2-14.1l0,0l0,0C281.8,163.1,289.9,169.2,290,179.8
		L290,179.8z"/>
	<path style="fill:#FFD05B;" d="M286.9,198.9L286.9,198.9c6,2.6,14.8-5.1,15-17.8l0,0l0,0C295.3,181.4,290.2,189.7,286.9,198.9
		L286.9,198.9z"/>
	<path style="fill:#FFD05B;" d="M286.9,198.9L286.9,198.9c-6.1-2.6-8.7-10.5-8.7-18.1l0,0l0,0C284.7,180.4,290.3,188.9,286.9,198.9
		L286.9,198.9z"/>
	<path style="fill:#FFD05B;" d="M277.1,216.1L277.1,216.1c4.7,4.5,15.9,0.2,20.4-11.8l0,0l0,0C291.2,202.3,283.7,208.4,277.1,216.1
		L277.1,216.1z"/>
	<path style="fill:#FFD05B;" d="M277.1,216.1L277.1,216.1c-4.8-4.5-4.3-13-1.8-20.3l0,0l0,0C281.6,197.7,284.1,207.7,277.1,216.1
		L277.1,216.1z"/>
	<path style="fill:#FFD05B;" d="M255,228.7c6.6-1.7,12.6-4.5,17.9-8.2c-3.9,5.1-9,9.9-15.5,13.8C256.6,232.5,255.8,230.6,255,228.7z
		"/>
</g>
<g>
	<path style="fill:#FFFFFF;" d="M185.8,278.7c2.2,1.9,3.4,4.8,3.4,8.8c0,3.9-1.2,6.8-3.4,8.7c-2.3,1.8-5.8,2.7-10.5,2.7H171v8.9
		h-7.1v-31.9h11.3C180,275.9,183.6,276.8,185.8,278.7z M180.6,291.3c0.9-1,1.3-2.4,1.3-4.2c0-1.8-0.6-3.2-1.7-3.9
		c-1.1-0.8-2.8-1.2-5.2-1.2h-4v10.7h4.8C178.1,292.7,179.7,292.3,180.6,291.3z"/>
	<path style="fill:#FFFFFF;" d="M215.4,307.8l-3-6.9H199l-3,6.9h-7.6l13.8-31.9h6.9l13.8,31.9H215.4z M205.7,285.4l-4,9.3h8
		L205.7,285.4z"/>
	<path style="fill:#FFFFFF;" d="M233.6,282.3c-0.7,0.6-1,1.3-1,2.2c0,0.9,0.4,1.7,1.3,2.2c0.8,0.5,2.8,1.2,5.8,1.9
		c3,0.7,5.4,1.9,7.1,3.4c1.7,1.5,2.5,3.7,2.5,6.5c0,2.9-1.1,5.2-3.2,7c-2.1,1.8-5,2.7-8.5,2.7c-5.1,0-9.6-1.9-13.7-5.6l4.2-5.2
		c3.4,3,6.6,4.5,9.5,4.5c1.3,0,2.3-0.3,3.1-0.8c0.7-0.6,1.1-1.3,1.1-2.3s-0.4-1.7-1.2-2.3s-2.4-1.1-4.7-1.7c-3.7-0.9-6.4-2-8.2-3.4
		c-1.7-1.4-2.6-3.6-2.6-6.7c0-3,1.1-5.4,3.3-7s4.9-2.5,8.2-2.5c2.1,0,4.3,0.4,6.4,1.1c2.1,0.7,4,1.8,5.6,3.1l-3.6,5.2
		c-2.8-2.1-5.6-3.2-8.6-3.2C235.2,281.4,234.3,281.7,233.6,282.3z"/>
	<path style="fill:#FFFFFF;" d="M262.5,282.3c-0.7,0.6-1,1.3-1,2.2c0,0.9,0.4,1.7,1.3,2.2c0.8,0.5,2.8,1.2,5.8,1.9
		c3,0.7,5.4,1.9,7.1,3.4s2.5,3.7,2.5,6.5c0,2.9-1.1,5.2-3.2,7s-5,2.7-8.5,2.7c-5.1,0-9.6-1.9-13.7-5.6l4.2-5.2
		c3.4,3,6.6,4.5,9.5,4.5c1.3,0,2.3-0.3,3.1-0.8c0.7-0.6,1.1-1.3,1.1-2.3s-0.4-1.7-1.2-2.3s-2.4-1.1-4.7-1.7c-3.7-0.9-6.4-2-8.2-3.4
		c-1.7-1.4-2.6-3.6-2.6-6.7c0-3,1.1-5.4,3.3-7c2.2-1.6,4.9-2.5,8.2-2.5c2.1,0,4.3,0.4,6.4,1.1s4,1.8,5.6,3.1l-3.6,5.2
		c-2.8-2.1-5.6-3.2-8.6-3.2C264.1,281.4,263.2,281.7,262.5,282.3z"/>
</g>
<g>
</g>
<g>
</g>
<g>
</g>
<g>
</g>
<g>
</g>
<g>
</g>
<g>
</g>
<g>
</g>
<g>
</g>
<g>
</g>
<g>
</g>
<g>
</g>
<g>
</g>
<g>
</g>
<g>
</g>
</svg>
