<?xml version="1.0" encoding="iso-8859-1"?>
<!-- Generator: Adobe Illustrator 19.0.0, SVG Export Plug-In . SVG Version: 6.00 Build 0)  -->
<svg version="1.1" id="Layer_1" xmlns="http://www.w3.org/2000/svg" xmlns:xlink="http://www.w3.org/1999/xlink" x="0px" y="0px"
	 viewBox="0 0 509.287 509.287" style="enable-background:new 0 0 509.287 509.287;" xml:space="preserve">
<circle style="fill:#FBD303;" cx="254.644" cy="254.644" r="254.644"/>
<path style="fill:#0090FF;" d="M243.115,206.495c26.787,0,48.826,21.701,48.826,48.826c0,6.781-1.356,13.563-4.069,19.327
	l43.062,12.885c3.73-10.172,5.764-20.683,5.764-32.212c0-51.539-41.706-93.245-93.245-93.245c-44.419,0-81.377,31.195-90.872,72.562
	l42.723,12.546C199.036,224.127,219.041,206.495,243.115,206.495z"/>
<g>
	<rect x="133.256" y="306.861" style="fill:#F0582F;" width="44.758" height="152.244"/>
	<rect x="84.09" y="368.233" style="fill:#F0582F;" width="143.089" height="44.758"/>
</g>
<g>
	
		<rect x="325.281" y="75.088" transform="matrix(-0.7071 -0.7071 0.7071 -0.7071 486.5715 503.9618)" style="fill:#0090FF;" width="44.757" height="152.242"/>
	<polygon style="fill:#0090FF;" points="423.841,205.478 379.083,205.478 379.083,119.354 293.298,119.354 293.298,74.596 
		423.841,74.596 	"/>
</g>
<path style="fill:#F0582F;" d="M155.634,142.411c-51.539,0-93.245,41.706-93.245,93.245s41.706,93.245,93.245,93.245
	s93.245-41.706,93.245-93.245S207.174,142.411,155.634,142.411z M155.634,284.482c-26.787,0-48.826-21.701-48.826-48.826
	c0-26.787,21.701-48.826,48.826-48.826c26.787,0,48.826,21.701,48.826,48.826C204.461,262.781,182.421,284.482,155.634,284.482z"/>
<path style="fill:#0090FF;" d="M287.873,274.649c-7.46,17.293-24.752,29.499-44.758,29.499c-26.787,0-48.826-21.701-48.826-48.827
	c0-2.713,0.339-5.425,0.678-8.138l-43.062-12.885c-1.356,6.781-2.374,13.563-2.374,20.683c0,51.539,41.706,93.245,93.245,93.245
	c40.35,0,74.596-25.43,87.481-61.372L287.873,274.649z"/>
<g>
</g>
<g>
</g>
<g>
</g>
<g>
</g>
<g>
</g>
<g>
</g>
<g>
</g>
<g>
</g>
<g>
</g>
<g>
</g>
<g>
</g>
<g>
</g>
<g>
</g>
<g>
</g>
<g>
</g>
</svg>
