<?xml version="1.0" encoding="iso-8859-1"?>
<!-- Generator: Adobe Illustrator 19.0.0, SVG Export Plug-In . SVG Version: 6.00 Build 0)  -->
<svg version="1.1" id="Layer_1" xmlns="http://www.w3.org/2000/svg" xmlns:xlink="http://www.w3.org/1999/xlink" x="0px" y="0px"
	 viewBox="0 0 512 512" style="enable-background:new 0 0 512 512;" xml:space="preserve">
<path style="fill:#B87FD9;" d="M418.341,198.082c-7.513-3.578-15.33-6.595-23.415-9.008c-7.589-2.268-15.411-3.998-23.415-5.147
	c-7.65-1.097-15.463-1.681-23.415-1.681c-3.364,0-6.706,0.101-10.02,0.303c-6.629,0.403-13.153,1.2-19.548,2.371
	c-1.598,0.293-3.189,0.609-4.772,0.948c-12.658,2.711-24.779,6.89-36.176,12.349c-1.424,0.682-2.838,1.385-4.24,2.106
	c-8.409,4.332-16.396,9.369-23.886,15.035c-1.249,0.944-2.482,1.906-3.703,2.885c-2.44,1.957-4.823,3.984-7.146,6.074
	c-5.808,5.228-11.242,10.863-16.256,16.86c-2.006,2.399-3.945,4.856-5.813,7.368c-5.011,6.736-9.522,13.861-13.468,21.332
	c-1.049,1.987-2.071,3.993-3.041,6.027c-0.631,1.324-1.243,2.658-1.837,4.001c-1.783,4.03-3.4,8.148-4.861,12.338
	c-0.815,2.337-1.595,4.691-2.309,7.074c-2.27,7.589-4.001,15.413-5.15,23.415c-1.099,7.65-1.68,15.468-1.68,23.415
	c0,19.15,3.312,37.537,9.374,54.634c2.878,8.114,6.366,15.942,10.43,23.415c2.245,4.129,4.664,8.15,7.246,12.055
	c2.582,3.906,5.326,7.694,8.222,11.359c30.043,38.007,76.536,62.439,128.632,62.439c90.374,0,163.902-73.527,163.902-163.902
	C512,280.894,473.667,224.432,418.341,198.082z"/>
<path style="fill:#EFC27B;" d="M179.512,1.951c-54.011,0-97.951,43.94-97.951,97.953c0,54.01,43.94,97.95,97.951,97.95
	c54.013,0,97.954-43.94,97.954-97.95C277.467,45.891,233.525,1.951,179.512,1.951z"/>
<path style="fill:#A4E276;" d="M23.415,447.61h196.051c-5.791-7.327-10.975-15.157-15.466-23.415
	c-4.065-7.472-7.552-15.301-10.43-23.415c-6.061-17.097-9.374-35.484-9.374-54.634c0-7.947,0.581-15.764,1.68-23.415
	c1.149-8.002,2.88-15.825,5.15-23.415c0.712-2.384,1.492-4.738,2.309-7.074c1.948-5.587,4.176-11.044,6.698-16.34
	c0.969-2.036,1.992-4.04,3.041-6.027c3.946-7.471,8.457-14.597,13.468-21.332c-12.127-2.544-24.517-3.86-37.028-3.86
	C80.529,244.683,0,325.212,0,424.195C0,437.126,10.484,447.61,23.415,447.61z"/>
<path style="fill:#5A2479;" d="M419.297,325.919c-1.377-4.236-5.04-7.327-9.453-7.969l-35.415-5.143l-15.836-32.092
	c-1.971-3.995-6.041-6.528-10.498-6.528c-4.457,0-8.528,2.533-10.501,6.528l-15.836,32.092l-35.415,5.143
	c-4.408,0.642-8.075,3.734-9.45,7.969c-1.381,4.241-0.228,8.89,2.961,12.001l25.627,24.98l-6.05,35.273
	c-0.752,4.391,1.054,8.832,4.655,11.453c3.606,2.618,8.384,2.963,12.329,0.888l31.685-16.653l31.677,16.651
	c1.711,0.899,3.579,1.344,5.443,1.344c0.014,0,0.023,0,0.034,0c6.466-0.002,11.706-5.242,11.706-11.707
	c0-0.982-0.122-1.936-0.35-2.847l-5.9-34.404l25.625-24.98C419.526,334.809,420.674,330.16,419.297,325.919z"/>
<path style="fill:#933EC5;" d="M200.031,275.902c-2.523,5.296-4.75,10.754-6.698,16.34c-0.815,2.337-1.595,4.691-2.309,7.074
	c-2.27,7.589-4.001,15.413-5.15,23.415c-1.099,7.65-1.68,15.468-1.68,23.415c0,19.15,3.312,37.537,9.374,54.634
	c2.878,8.114,6.366,15.942,10.43,23.415c4.491,8.258,9.675,16.087,15.466,23.415c30.043,38.007,76.536,62.439,128.632,62.439
	V393.862l-31.678,16.651c-3.945,2.075-8.724,1.728-12.329-0.888c-3.603-2.621-5.409-7.06-4.655-11.453l6.05-35.273l-25.627-24.98
	c-3.191-3.109-4.343-7.76-2.961-12.001c1.375-4.236,5.04-7.327,9.45-7.97l35.417-5.143l15.836-32.092
	c1.973-3.995,6.043-6.528,10.501-6.528v-91.94c-53.83,0-101.66,26.106-131.557,66.299c-5.011,6.736-9.522,13.861-13.468,21.332
	C202.023,271.863,201.001,273.867,200.031,275.902z"/>
<path style="fill:#ECB45C;" d="M81.561,99.904c0,54.01,43.94,97.95,97.951,97.95h0.002V1.951h-0.002
	C125.501,1.951,81.561,45.891,81.561,99.904z"/>
<path style="fill:#64C37D;" d="M0,424.195c0,12.931,10.484,23.415,23.415,23.415h156.099V244.683h-0.002
	C80.529,244.683,0,325.212,0,424.195z"/>
<g>
</g>
<g>
</g>
<g>
</g>
<g>
</g>
<g>
</g>
<g>
</g>
<g>
</g>
<g>
</g>
<g>
</g>
<g>
</g>
<g>
</g>
<g>
</g>
<g>
</g>
<g>
</g>
<g>
</g>
</svg>
