<?xml version="1.0" encoding="iso-8859-1"?>
<!-- Generator: Adobe Illustrator 19.0.0, SVG Export Plug-In . SVG Version: 6.00 Build 0)  -->
<svg version="1.1" id="Layer_1" xmlns="http://www.w3.org/2000/svg" xmlns:xlink="http://www.w3.org/1999/xlink" x="0px" y="0px"
	 viewBox="0 0 512.005 512.005" style="enable-background:new 0 0 512.005 512.005;" xml:space="preserve">
<path style="fill:#95D6A6;" d="M418.628,198.257c-7.487-3.567-15.287-6.575-23.343-8.981c-7.566-2.261-15.363-3.986-23.343-5.131
	c-7.629-1.094-15.418-1.676-23.343-1.676c-8.405,0-16.664,0.638-24.73,1.869c-3.226,0.492-6.423,1.08-9.585,1.759
	c-1.581,0.339-3.153,0.702-4.717,1.086c-6.254,1.541-12.369,3.442-18.32,5.682c-2.975,1.119-5.909,2.323-8.799,3.61
	c-5.78,2.571-11.385,5.469-16.79,8.67c-4.054,2.4-7.996,4.971-11.815,7.702c-2.546,1.821-5.039,3.712-7.475,5.672
	c-1.217,0.98-2.422,1.976-3.609,2.991c-3.567,3.041-7,6.233-10.293,9.565c-5.487,5.553-10.582,11.496-15.237,17.783
	c-3.721,5.025-7.165,10.263-10.302,15.702c-1.046,1.813-2.057,3.648-3.033,5.504c-1.005,1.908-1.981,3.831-2.91,5.783
	c-2.537,5.325-4.775,10.814-6.731,16.435c-0.795,2.283-1.555,4.582-2.25,6.908c-0.565,1.892-1.097,3.797-1.594,5.718
	c-1.492,5.76-2.677,11.642-3.539,17.626c-1.092,7.627-1.673,15.421-1.673,23.343c0,9.546,0.826,18.902,2.407,28.001
	c1.581,9.099,3.917,17.945,6.939,26.467c1.433,4.045,3.021,8.018,4.754,11.911c1.734,3.894,3.617,7.706,5.641,11.432
	c2.239,4.116,4.652,8.127,7.226,12.02c2.574,3.894,5.31,7.671,8.197,11.323c29.951,37.891,76.302,62.249,128.24,62.249
	c90.101,0,163.404-73.303,163.404-163.404C512.002,280.818,473.784,224.528,418.628,198.257z"/>
<path style="fill:#EFC27B;" d="M178.968,2.723c-53.847,0-97.655,43.808-97.655,97.655c0,53.846,43.808,97.652,97.655,97.652
	s97.654-43.806,97.654-97.652C276.622,46.531,232.815,2.723,178.968,2.723z"/>
<path style="fill:#A4E276;" d="M23.345,447.027h197.013c-5.774-7.305-10.942-15.111-15.421-23.343
	c-4.049-7.45-7.529-15.254-10.397-23.343c-6.044-17.045-9.347-35.376-9.347-54.468c0-7.923,0.58-15.716,1.673-23.343
	c1.148-7.977,2.873-15.777,5.132-23.343c0.696-2.328,1.457-4.627,2.25-6.908c1.956-5.621,4.194-11.11,6.731-16.435
	c0.929-1.95,1.906-3.875,2.91-5.783c3.906-7.425,8.376-14.507,13.335-21.205c-12.517-2.728-25.321-4.136-38.258-4.136
	C80.284,244.717,0,325.001,0,423.683C0.002,436.575,10.453,447.027,23.345,447.027z"/>
<path style="fill:#368B4C;" d="M395.284,322.528h-23.343v-23.343c0-12.892-10.453-23.343-23.343-23.343
	c-12.892,0-23.343,10.452-23.343,23.343v23.343H301.91c-12.892,0-23.343,10.452-23.343,23.343c0,12.893,10.452,23.343,23.343,23.343
	h23.343v23.343c0,12.893,10.452,23.343,23.343,23.343c12.89,0,23.343-10.45,23.343-23.343v-23.343h23.343
	c12.89,0,23.343-10.45,23.343-23.343C418.628,332.98,408.174,322.528,395.284,322.528z"/>
<path style="fill:#64C37D;" d="M200.981,275.841c-2.537,5.325-4.775,10.814-6.731,16.435c-0.795,2.283-1.555,4.582-2.25,6.908
	c-2.26,7.566-3.984,15.366-5.132,23.343c-1.092,7.627-1.673,15.421-1.673,23.343c0,19.092,3.302,37.423,9.347,54.468
	c2.868,8.089,6.346,15.894,10.397,23.343c4.479,8.232,9.647,16.039,15.421,23.343c29.951,37.891,76.302,62.249,128.24,62.249
	v-93.374c-12.892,0-23.343-10.45-23.343-23.343v-23.343h-23.343c-12.892,0-23.343-10.45-23.343-23.343
	c0-12.892,10.452-23.343,23.343-23.343h23.343v-23.343c0-12.892,10.452-23.343,23.343-23.343v-93.374
	c-53.794,0-101.58,26.151-131.371,66.386c-4.961,6.7-9.431,13.78-13.335,21.205C202.886,271.966,201.909,273.891,200.981,275.841z"
	/>
<path style="fill:#ECB45C;" d="M81.313,100.378c0,53.844,43.808,97.652,97.653,97.652V2.723
	C125.121,2.723,81.313,46.531,81.313,100.378z"/>
<path style="fill:#64C37D;" d="M0.002,423.683c0,12.892,10.452,23.343,23.343,23.343h155.623v-202.31
	C80.286,244.717,0.002,325.001,0.002,423.683z"/>
<g>
</g>
<g>
</g>
<g>
</g>
<g>
</g>
<g>
</g>
<g>
</g>
<g>
</g>
<g>
</g>
<g>
</g>
<g>
</g>
<g>
</g>
<g>
</g>
<g>
</g>
<g>
</g>
<g>
</g>
</svg>
